<?xml version="1.0" encoding="UTF-8"?>
<svg version="1.1" xmlns="http://www.w3.org/2000/svg" width="342" height="342">
<path d="M0 0 C0.80659058 -0.00776459 1.61318115 -0.01552917 2.44421387 -0.02352905 C19.16020785 -0.15050051 19.16020785 -0.15050051 26.625 3.375 C28.91513275 6.81019912 28.89706567 8.1577276 28.9597168 12.20751953 C28.99436287 14.00420578 28.99436287 14.00420578 29.02970886 15.83718872 C29.04439713 17.13099457 29.05908539 18.42480042 29.07421875 19.7578125 C29.09547125 21.09635537 29.11743843 22.43488707 29.14009094 23.77340698 C29.18546358 26.57593846 29.22426673 29.37845774 29.25805664 32.18115234 C29.30168522 35.78071376 29.35840956 39.37991836 29.4196043 42.97921944 C29.46568836 45.74143079 29.50652175 48.50369892 29.54557228 51.26601791 C29.57397616 53.24094495 29.60553985 55.21582572 29.63713074 57.19070435 C29.65077164 58.38219086 29.66441254 59.57367737 29.6784668 60.80126953 C29.69241989 61.85589386 29.70637299 62.91051819 29.7207489 63.99710083 C29.625 66.375 29.625 66.375 28.625 67.375 C29.285 67.705 29.945 68.035 30.625 68.375 C31.12 66.89 31.12 66.89 31.625 65.375 C35.96785714 61.375 35.96785714 61.375 39.625 61.375 C39.66036362 60.81282776 39.69572723 60.25065552 39.73216248 59.67144775 C40.10392397 53.76541053 40.47739251 47.85948292 40.85180664 41.95361328 C40.99090725 39.75604923 41.12958761 37.55845854 41.26782227 35.36083984 C41.46777854 32.18319538 41.66929817 29.00565313 41.87109375 25.828125 C41.9315538 24.8619928 41.99201385 23.8958606 42.05430603 22.90045166 C42.49139417 16.05071952 43.03346969 9.2130697 43.625 2.375 C61.96528342 2.25794202 80.28948757 2.35419936 98.625 2.8125 C99.44460205 2.83214813 100.2642041 2.85179626 101.10864258 2.87203979 C112.62930116 3.15317601 124.12231267 3.67497833 135.625 4.375 C135.78038998 23.79829893 135.34001909 43.15271103 134.625 62.5625 C134.295 71.740625 133.965 80.91875 133.625 90.375 C108.875 90.705 84.125 91.035 58.625 91.375 C58.955 91.705 59.285 92.035 59.625 92.375 C59.295 94.685 58.965 96.995 58.625 99.375 C83.045 99.705 107.465 100.035 132.625 100.375 C133.09892211 175.72861506 133.09892211 175.72861506 126.375 185.12109375 C124.02782777 186.80288457 121.86880272 187.33409766 119.0625 188 C118.09183594 188.23976563 117.12117187 188.47953125 116.12109375 188.7265625 C106.20147829 190.56640179 96.1218648 190.71274392 86.0625 191 C84.91737442 191.03418533 84.91737442 191.03418533 83.74911499 191.06906128 C69.97871555 191.46640714 56.39022057 191.12583021 42.625 190.375 C42.295 174.205 41.965 158.035 41.625 141.375 C40.965 141.705 40.305 142.035 39.625 142.375 C37.2920134 142.41522391 34.95793334 142.41820247 32.625 142.375 C31.48146633 146.17320882 31.26296056 150.02364853 30.9765625 153.95703125 C30.85729194 155.46162994 30.73748322 156.96618605 30.6171875 158.47070312 C30.43196667 160.82687869 30.25032013 163.18311772 30.078125 165.5402832 C29.90943113 167.82603726 29.72538446 170.1101552 29.5390625 172.39453125 C29.49206207 173.08956253 29.44506165 173.78459381 29.39663696 174.50068665 C28.98165269 179.39231105 27.72338364 183.01029103 25.625 187.375 C4.85174712 188.68398996 -15.86908869 189.57879161 -36.6875 189.5625 C-37.61439636 189.5632251 -38.54129272 189.5639502 -39.49627686 189.56469727 C-42.11869207 189.5644639 -44.74090056 189.55585849 -47.36328125 189.54296875 C-48.14795273 189.54177536 -48.93262421 189.54058197 -49.74107361 189.53935242 C-55.14128958 189.49185521 -55.14128958 189.49185521 -57.375 188.375 C-56.5 181.625 -56.5 181.625 -55.375 179.375 C-56.41140625 179.08302734 -56.41140625 179.08302734 -57.46875 178.78515625 C-61.45652045 176.85023 -63.92378844 174.06765694 -66.875 170.8125 C-67.73774536 169.87229004 -67.73774536 169.87229004 -68.61791992 168.91308594 C-78.375 158.04055201 -78.375 158.04055201 -78.375 152.375 C-77.715 152.375 -77.055 152.375 -76.375 152.375 C-76.11291748 151.48562744 -75.85083496 150.59625488 -75.58081055 149.67993164 C-74.40631794 146.4608374 -73.08971456 144.24863895 -71.08203125 141.49609375 C-61.52194357 127.68965349 -58.76323613 118.91062601 -61.375 102.375 C-60.375 101.375 -60.375 101.375 -57.21484375 101.27734375 C-55.92707031 101.28894531 -54.63929687 101.30054688 -53.3125 101.3125 C-51.37697266 101.32603516 -51.37697266 101.32603516 -49.40234375 101.33984375 C-48.40332031 101.35144531 -47.40429688 101.36304688 -46.375 101.375 C-46.06820312 100.60800781 -45.76140625 99.84101563 -45.4453125 99.05078125 C-44.421875 96.4921875 -43.3984375 93.93359375 -42.375 91.375 C-42.95507812 91.34921875 -43.53515625 91.3234375 -44.1328125 91.296875 C-49.56321575 90.9025883 -53.19784159 90.1543338 -57.375 86.375 C-60.32370089 80.79431552 -60.96799762 75.84080312 -61.32421875 69.59375 C-61.38656204 68.66260376 -61.44890533 67.73145752 -61.51313782 66.77209473 C-61.64236467 64.80580008 -61.76555705 62.83910058 -61.88305664 60.87207031 C-62.06033956 57.91108379 -62.25597924 54.95177879 -62.45507812 51.9921875 C-64.63561814 18.59882991 -64.63561814 18.59882991 -59.375 12.375 C-44.86991011 -1.90088983 -18.85113839 0.08409481 0 0 Z " fill="#F5AB86" transform="translate(85.375,125.625)"/>
<path d="M0 0 C30.03 0 60.06 0 91 0 C91.33 12.87 91.66 25.74 92 39 C92.33 39.33 92.66 39.66 93 40 C93.65355469 39.22076172 93.65355469 39.22076172 94.3203125 38.42578125 C94.91585937 37.72839844 95.51140625 37.03101563 96.125 36.3125 C96.99511719 35.28576172 96.99511719 35.28576172 97.8828125 34.23828125 C100.37401305 31.60459506 103.21501157 29.32082369 106 27 C106 18.09 106 9.18 106 0 C135.7 0 165.4 0 196 0 C196.33 17.49 196.66 34.98 197 53 C199.97 53.33 202.94 53.66 206 54 C206.87890625 60.15234375 206.87890625 60.15234375 207 62 C206.67 62.33 206.34 62.66 206 63 C203.03 63 200.06 63 197 63 C197 71.25 197 79.5 197 88 C191.06 88 185.12 88 179 88 C180.98 93.445 180.98 93.445 183 99 C187.29 99.33 191.58 99.66 196 100 C196 129.37 196 158.74 196 189 C146.5632716 190.14969136 146.5632716 190.14969136 125.3125 190.0625 C117.949375 190.041875 110.58625 190.02125 103 190 C103 160.63 103 131.26 103 101 C107.95 100.505 107.95 100.505 113 100 C110.86576469 97.09380723 108.7060435 94.39360404 106 92 C102.5 91.66666667 102.5 91.66666667 99 92 C97.28114319 90.9495875 95.5628011 89.89792731 93.86321926 88.81660557 C91.56133513 87.80774341 90.27929468 87.97790194 87.81349182 88.37181091 C83.29371021 88.99194835 78.91608781 89.13555354 74.35913086 89.11352539 C73.54827026 89.11367142 72.73740967 89.11381744 71.90197754 89.1139679 C69.25623782 89.11327842 66.61057098 89.10553182 63.96484375 89.09765625 C62.11682677 89.09578864 60.26880928 89.09436635 58.42079163 89.09336853 C53.5826376 89.0895704 48.74451412 89.0797635 43.90637207 89.06866455 C38.95906996 89.058392 34.01176286 89.05385844 29.06445312 89.04882812 C19.37628875 89.03813855 9.68814692 89.02109499 0 89 C-0.04123177 70.76811361 -0.04123177 70.76811361 0.21875 62.94921875 C0.26456602 61.42073808 0.31029896 59.89225492 0.35595703 58.36376953 C0.3796637 57.59889221 0.40337036 56.83401489 0.42779541 56.04595947 C0.92852981 39.83833251 0.92852981 39.83833251 1.125 23.625 C1.12951172 22.94010498 1.13402344 22.25520996 1.13867188 21.54956055 C1.1176149 14.3243877 0.48318335 7.24775018 0 0 Z " fill="#59C0A3" transform="translate(127,27)"/>
<path d="M0 0 C29.7 0 59.4 0 90 0 C90.33 17.49 90.66 34.98 91 53 C93.97 53.33 96.94 53.66 100 54 C100.87890625 60.15234375 100.87890625 60.15234375 101 62 C100.67 62.33 100.34 62.66 100 63 C97.03 63 94.06 63 91 63 C91 71.25 91 79.5 91 88 C84.73 88 78.46 88 72 88 C70.43108518 83.29325554 69.51470841 79.46850655 68.875 74.625 C68.70742188 73.37976563 68.53984375 72.13453125 68.3671875 70.8515625 C68.18542969 69.44003906 68.18542969 69.44003906 68 68 C68.08966349 69.77162689 68.19778685 71.54231857 68.3125 73.3125 C68.37050781 74.29863281 68.42851562 75.28476563 68.48828125 76.30078125 C69.87417373 86.31940856 73.61055712 95.65713863 77.30273438 105.01367188 C81.17173494 115.22812049 81.17173494 115.22812049 80 121 C77.66581539 123.34416829 74.97725082 124.61335974 72 126 C70.7625 126.60642334 70.7625 126.60642334 69.5 127.22509766 C66.85627377 128.48076808 64.18752031 129.65382015 61.5 130.8125 C60.60152344 131.21919922 59.70304687 131.62589844 58.77734375 132.04492188 C53.28151437 134.42484799 48.98558927 136.0280833 43 135 C40.65128144 133.0067796 39.04930343 131.37015785 37.1875 129 C32.70904505 123.71515126 28.19525146 119.70363283 22.46875 115.74609375 C16.85303156 111.77421694 13.26906553 107.77957116 10.1875 101.625 C5.73438555 93.03601144 -1.33501488 87.99344975 -9.3125 82.8125 C-16.79763396 77.93422448 -19.93964215 73.71926732 -23.0234375 65.3203125 C-23.95917254 62.79309231 -23.95917254 62.79309231 -26.1875 60.3125 C-28.63619859 57.18829836 -29 54.93961385 -29 51 C-27.4375 48.5625 -27.4375 48.5625 -25 47 C-21.03122252 46.18820461 -18.57550207 47.01300077 -15.1875 49 C-12.15443639 51.02014556 -9.61712295 53.28510698 -7 55.8125 C-1.41647634 60.92593318 5.08913021 63.7610282 11.86425781 66.96484375 C15.46301428 68.709097 18.97991045 70.60319928 22.5 72.5 C23.15307129 72.850625 23.80614258 73.20125 24.47900391 73.5625 C25.98702656 74.37309793 27.49368063 75.18624126 29 76 C29 75.34 29 74.68 29 74 C27.91102417 73.57219238 27.91102417 73.57219238 26.80004883 73.13574219 C22.35469932 71.33264114 18.0298477 69.28632774 13.6875 67.25 C12.77548828 66.83234375 11.86347656 66.4146875 10.92382812 65.984375 C2.7161252 62.12469535 -3.82567334 57.24313277 -10.5 51.125 C-11.3559375 50.34382813 -12.211875 49.56265625 -13.09375 48.7578125 C-14.03734375 47.88769531 -14.03734375 47.88769531 -15 47 C-13.60609504 39.91431645 -11.75865598 37.70816718 -5.8125 33.625 C2.96778657 25.08625929 2.96778657 25.08625929 0 0 Z " fill="#F7AC86" transform="translate(233,27)"/>
<path d="M0 0 C1.25695679 0.00539291 1.25695679 0.00539291 2.53930664 0.01089478 C3.41727402 0.01074875 4.29524139 0.01060272 5.19981384 0.01045227 C8.11630685 0.01115172 11.03273683 0.01894561 13.94921875 0.02676392 C15.96561142 0.02862798 17.98200454 0.03005194 19.99839783 0.03105164 C25.31671388 0.03487772 30.6350028 0.04470878 35.95330811 0.05575562 C41.37576938 0.06596779 46.79823502 0.07054884 52.22070312 0.07559204 C62.86850153 0.08633097 73.51627976 0.10340847 84.1640625 0.12442017 C84.16184189 1.09637329 84.15962128 2.06832642 84.15733337 3.06973267 C84.13702108 12.25011271 84.12205146 21.43048816 84.11225033 30.61088562 C84.10704202 35.33008769 84.09998177 40.04927155 84.08862305 44.76846313 C84.07772108 49.32665179 84.07177021 53.88482299 84.06918526 58.44302368 C84.06734415 60.17805252 84.06374901 61.91308045 84.05833244 63.64810181 C84.0510249 66.08684318 84.05007563 68.52551328 84.05053711 70.96426392 C84.0451442 72.02918312 84.0451442 72.02918312 84.03964233 73.11561584 C84.04932525 77.87524673 84.49993749 82.42211162 85.1640625 87.12442017 C72.15749425 93.07628423 54.05730854 90.50531715 39.84844112 90.62104893 C36.0792121 90.65182432 32.31166307 90.69882141 28.54321289 90.78286743 C24.85698254 90.86477278 21.17223026 90.9074727 17.48513985 90.92237663 C16.09074622 90.93459098 14.69639942 90.96054834 13.3025341 91.00082588 C2.4818792 91.29862989 2.4818792 91.29862989 -0.78617859 88.38670349 C-2.10861352 86.32473054 -3.02791064 84.43154113 -3.8359375 82.12442017 C-4.36767578 80.73416626 -4.36767578 80.73416626 -4.91015625 79.31582642 C-8.31574563 64.71734453 -9.14122867 50.53422203 -8.5234375 35.62442017 C-8.47348245 34.15961441 -8.42465374 32.69476982 -8.37695312 31.22988892 C-8.22802871 26.85982191 -8.04180747 22.49215359 -7.8359375 18.12442017 C-7.79857483 17.3310022 -7.76121216 16.53758423 -7.72271729 15.72012329 C-7.60708886 13.34406314 -7.48308369 10.9686142 -7.35546875 8.59317017 C-7.30056526 7.4909613 -7.30056526 7.4909613 -7.24455261 6.3664856 C-6.87920972 -0.04040346 -6.37502449 0.01155149 0 0 Z " fill="#6ACBE0" transform="translate(27.8359375,25.875579833984375)"/>
<path d="M0 0 C18.34028342 -0.11705798 36.66448757 -0.02080064 55 0.4375 C55.81960205 0.45714813 56.6392041 0.47679626 57.48364258 0.49703979 C69.00430116 0.77817601 80.49731267 1.29997833 92 2 C92.1553843 21.42258914 91.71622222 40.77859889 91 60.1875 C90.90267015 62.90686673 90.80678947 65.62628395 90.7109375 68.34570312 C90.47893611 74.89732148 90.24168077 81.44873191 90 88 C79.9949931 88.02313763 69.98999254 88.04092237 59.98496437 88.05181217 C55.33957603 88.05703788 50.69420595 88.06412989 46.04882812 88.07543945 C41.56847325 88.08627939 37.08813598 88.0922792 32.60776901 88.09487724 C30.89569191 88.09672949 29.18361581 88.10034629 27.47154617 88.10573006 C25.07947941 88.11295514 22.68748602 88.11399032 20.29541016 88.11352539 C19.58259384 88.11712067 18.86977753 88.12071594 18.13536072 88.12442017 C13.22810432 88.11405216 13.22810432 88.11405216 11 87 C11.515625 87.556875 12.03125 88.11375 12.5625 88.6875 C14 91 14 91 13.875 93.625 C13 96 13 96 10 98 C7.58203125 98.40625 7.58203125 98.40625 5 98 C2.76171875 96.03125 2.76171875 96.03125 0.6875 93.5 C-0.35857422 92.24703125 -0.35857422 92.24703125 -1.42578125 90.96875 C-1.94527344 90.3190625 -2.46476562 89.669375 -3 89 C-1.44629667 85.68284339 0.46789665 82.73134972 2.5 79.6875 C5.22738133 75.45750734 7.0158873 71.92056349 8 67 C8.99 67.66 9.98 68.32 11 69 C14.02329256 69.2610788 16.95876242 69.08815181 20 69 C20 65.04 20 61.08 20 57 C14.99796919 56.90757327 14.99796919 56.90757327 10 57 C8.03177114 58.96822886 8.33751619 62.34808709 8 65 C6.6328125 63.73046875 5.265625 62.4609375 3.8984375 61.19140625 C1.3634232 59.60050221 -1.06561782 59.43336961 -4 59 C-3.59275714 52.52609686 -3.1836064 46.05231622 -2.77319336 39.57861328 C-2.63409275 37.38104923 -2.49541239 35.18345854 -2.35717773 32.98583984 C-2.15722146 29.80819538 -1.95570183 26.63065313 -1.75390625 23.453125 C-1.6934462 22.4869928 -1.63298615 21.5208606 -1.57069397 20.52545166 C-1.13360583 13.67571952 -0.59153031 6.8380697 0 0 Z " fill="#EAB742" transform="translate(129,128)"/>
<path d="M0 0 C2.35251212 0.08689823 4.67364797 0.2333594 7.01879883 0.41992188 C14.85133225 0.97556037 22.6523886 1.18627259 30.5025692 1.26036072 C32.76941953 1.28191758 35.03615541 1.30886723 37.30293274 1.33703613 C42.91521175 1.40580867 48.52757108 1.46641971 54.13995361 1.52606201 C58.92532436 1.57711073 63.7106225 1.63187567 68.49588966 1.69187927 C70.7210076 1.7182672 72.94613359 1.73916864 75.17131042 1.7598877 C76.53437646 1.77648964 77.89743924 1.79336138 79.26049805 1.81054688 C80.44467819 1.82307495 81.62885834 1.83560303 82.84892273 1.84851074 C85.68053077 1.98464139 88.24574928 2.35322062 91 3 C90.99777939 3.89456406 90.99555878 4.78912811 90.99327087 5.71080017 C90.97317622 14.16977824 90.95797924 22.6287482 90.94818783 31.08774471 C90.94298465 35.43586692 90.93593392 39.78396929 90.92456055 44.13208008 C90.9136401 48.33366146 90.90770387 52.53522383 90.90512276 56.73681831 C90.90328494 58.33425762 90.89969633 59.93169597 90.89426994 61.52912712 C90.86856782 69.41389836 90.87888112 77.1754437 92 85 C85.2085377 87.28959424 78.76174924 88.61439441 71.625 89.1875 C70.70452881 89.26645508 69.78405762 89.34541016 68.83569336 89.42675781 C53.7462647 90.65594163 38.90919186 90.69049735 25 84 C24.3723877 83.70254883 23.74477539 83.40509766 23.09814453 83.09863281 C20.95496008 82.07825915 18.81985099 81.04281452 16.6875 80 C15.66390381 79.50185791 15.66390381 79.50185791 14.61962891 78.99365234 C8.16416808 75.75876862 4.19620419 73.3091159 1.66523743 66.19625854 C0.64650574 62.83295084 0.16904263 59.45627127 -0.17578125 55.97265625 C-0.29546013 54.82640526 -0.29546013 54.82640526 -0.41755676 53.65699768 C-1.29593882 44.27849469 -1.26478918 34.882252 -1.20581055 25.47094727 C-1.18716646 22.38224303 -1.18530422 19.29383361 -1.18554688 16.20507812 C-1.18064389 14.23958071 -1.17482098 12.27408533 -1.16796875 10.30859375 C-1.16685593 9.38590195 -1.1657431 8.46321014 -1.16459656 7.51255798 C-1.11617472 1.11617472 -1.11617472 1.11617472 0 0 Z " fill="#EB6979" transform="translate(230,225)"/>
<path d="M0 0 C1.11322128 -0.00043808 1.11322128 -0.00043808 2.24893188 -0.00088501 C4.68381751 0.00050006 7.11839098 0.01602207 9.55322266 0.03173828 C11.24858432 0.03547134 12.94394815 0.03831693 14.63931274 0.04031372 C19.08793154 0.04792709 23.53641844 0.06755573 27.98498535 0.08972168 C32.52984839 0.11022971 37.07473287 0.11932602 41.61962891 0.12939453 C50.52723874 0.15080389 59.43475095 0.18491197 68.34228516 0.22705078 C69.0163851 75.30104243 69.0163851 75.30104243 62.09228516 84.97314453 C59.74511292 86.65493535 57.58608788 87.18614844 54.77978516 87.85205078 C53.80912109 88.09181641 52.83845703 88.33158203 51.83837891 88.57861328 C42.64441392 90.28386265 33.332917 90.51168125 24.00756836 90.78466797 C21.83553816 90.85036444 19.66424613 90.92901926 17.49267578 91.00830078 C4.41809476 91.43014982 -8.59714732 90.86462743 -21.65771484 90.22705078 C-21.7086488 83.12869347 -21.74354637 76.03038374 -21.76757812 68.93188477 C-21.77760238 66.51975747 -21.79122529 64.10764223 -21.80859375 61.69555664 C-21.83299946 58.21774308 -21.84423402 54.74009096 -21.85302734 51.26220703 C-21.86334991 50.19309586 -21.87367249 49.12398468 -21.88430786 48.0224762 C-21.88523346 41.77030459 -21.25242535 36.27757007 -19.65771484 30.22705078 C-18.99771484 30.55705078 -18.33771484 30.88705078 -17.65771484 31.22705078 C-15.99425902 31.34787612 -14.32550893 31.40243018 -12.65771484 31.41455078 C-11.32740234 31.43582031 -11.32740234 31.43582031 -9.97021484 31.45751953 C-7.46251501 31.45418204 -7.46251501 31.45418204 -5.65771484 29.22705078 C-4.87590556 22.88299418 -6.97583501 18.47310916 -9.65771484 12.91455078 C-10.41071404 11.31569944 -11.16086238 9.71550134 -11.90771484 8.11376953 C-12.24287109 7.41469482 -12.57802734 6.71562012 -12.92333984 5.99536133 C-13.65771484 4.22705078 -13.65771484 4.22705078 -13.65771484 2.22705078 C-9.02690354 0.41650507 -4.91714945 -0.05131014 0 0 Z " fill="#6ACCE1" transform="translate(149.65771484375,225.77294921875)"/>
<path d="M0 0 C3.3 0 6.6 0 10 0 C10 28.05 10 56.1 10 85 C-0.8075 85.165 -11.615 85.33 -22.75 85.5 C-26.11799805 85.55220703 -29.48599609 85.60441406 -32.95605469 85.65820312 C-35.69465968 85.69933757 -38.43326635 85.74036024 -41.171875 85.78125 C-42.19054657 85.79738342 -42.19054657 85.79738342 -43.22979736 85.81384277 C-54.82255401 85.99674852 -66.4032346 86 -78 86 C-78 57.95 -78 29.9 -78 1 C-74.7 1 -71.4 1 -68 1 C-65 5 -65 5 -63.6171875 7.48828125 C-60.26888622 12.68866222 -54.79159611 16.041937 -49.7890625 19.55078125 C-45.40408744 22.66730567 -42.39240095 25.75741504 -39.421875 30.265625 C-37.71618282 32.34619458 -36.54248319 33.11644201 -34 34 C-29.36080193 34.31883958 -26.16371584 33.5426557 -21.90234375 31.734375 C-20.77119141 31.25613281 -19.64003906 30.77789062 -18.47460938 30.28515625 C-17.30736328 29.77855469 -16.14011719 29.27195313 -14.9375 28.75 C-13.76638672 28.25886719 -12.59527344 27.76773438 -11.38867188 27.26171875 C-6.0394571 24.97312144 -1.35854492 22.94161924 3 19 C4.61184518 13.26310366 2.46092081 8.12691836 0 3 C0 2.01 0 1.02 0 0 Z " fill="#FDFDFD" transform="translate(311,129)"/>
<path d="M0 0 C2.45734149 0.01621035 4.9130666 -0.00000742 7.37036133 -0.01904297 C15.21742395 -0.02954761 22.38719436 0.00502165 29.63012695 3.39111328 C30.94101585 6.01289107 30.79096402 8.00635962 30.83544922 10.94238281 C30.86536705 12.68396164 30.86536705 12.68396164 30.89588928 14.46072388 C30.91260178 15.71908051 30.92931427 16.97743713 30.9465332 18.27392578 C30.9673143 19.55846649 30.9880954 20.8430072 31.00950623 22.16647339 C31.06471744 25.58260687 31.11413083 28.99880073 31.16235352 32.41503906 C31.21257552 35.90060809 31.26825792 39.38608937 31.32348633 42.87158203 C31.43105623 49.7113497 31.53250379 56.55119662 31.63012695 63.39111328 C27.69568407 62.6987689 25.26950566 61.7244149 22.00512695 59.39111328 C15.44170686 54.73175704 9.53114688 54.75766206 1.63012695 55.39111328 C-1.71859233 56.18599142 -4.90288429 57.19342626 -8.1550293 58.31689453 C-11.37145232 59.39164098 -14.56079046 60.15801175 -17.86987305 60.89111328 C-23.85863375 62.36156373 -23.85863375 62.36156373 -28.36987305 66.39111328 C-29.97845601 69.97813587 -31.19136938 73.64407597 -32.36987305 77.39111328 C-32.95143174 79.12087761 -33.5345875 80.85010642 -34.11987305 82.57861328 C-34.53812007 83.84892738 -34.95543777 85.11955051 -35.36987305 86.39111328 C-38.55737305 86.70361328 -38.55737305 86.70361328 -42.36987305 86.39111328 C-44.99487305 84.07861328 -44.99487305 84.07861328 -47.36987305 81.39111328 C-48.20800537 80.94147217 -49.0461377 80.49183105 -49.90966797 80.02856445 C-53.76279215 77.46402105 -53.86785128 74.62778153 -54.80200195 70.26074219 C-56.00273551 62.07861538 -56.23996127 53.83349844 -56.55737305 45.57861328 C-56.6389654 43.71723706 -56.72164032 41.85590796 -56.80541992 39.99462891 C-57.72516836 18.96353351 -57.72516836 18.96353351 -56.24487305 16.57861328 C-54.36987305 15.39111328 -54.36987305 15.39111328 -51.5925293 14.53173828 C-48.29276968 13.36382336 -45.82588353 11.90641789 -42.93237305 9.95361328 C-29.51045221 1.26354925 -15.59127686 -0.12235835 0 0 Z " fill="#FDFDFD" transform="translate(81.369873046875,127.60888671875)"/>
<path d="M0 0 C4.69019913 2.1517404 8.3161291 5.25493324 12 8.8125 C17.58352366 13.92593318 24.08913021 16.7610282 30.86425781 19.96484375 C34.46301428 21.709097 37.97991045 23.60319928 41.5 25.5 C42.15307129 25.850625 42.80614258 26.20125 43.47900391 26.5625 C44.98702656 27.37309793 46.49368063 28.18624126 48 29 C48 28.34 48 27.68 48 27 C46.92685547 26.58621094 46.92685547 26.58621094 45.83203125 26.1640625 C43.04261145 25.01751478 40.37709642 23.73772885 37.6875 22.375 C36.80449219 21.92898437 35.92148438 21.48296875 35.01171875 21.0234375 C34.34785156 20.68570313 33.68398437 20.34796875 33 20 C33 19.67 33 19.34 33 19 C50.37013355 17.61171852 67.56656883 16.66489043 85 17 C85.1043335 17.63164063 85.20866699 18.26328125 85.31616211 18.9140625 C87.6347521 32.54329663 90.70965672 45.2460496 96.05249023 58.02929688 C100.21793987 68.19760954 100.21793987 68.19760954 99 74 C96.6640037 76.34278351 93.97768346 77.61315824 91 79 C89.7625 79.60642334 89.7625 79.60642334 88.5 80.22509766 C85.85627377 81.48076808 83.18752031 82.65382015 80.5 83.8125 C79.60152344 84.21919922 78.70304687 84.62589844 77.77734375 85.04492188 C72.28151437 87.42484799 67.98558927 89.0280833 62 88 C59.65128144 86.0067796 58.04930343 84.37015785 56.1875 82 C51.70904505 76.71515126 47.19525146 72.70363283 41.46875 68.74609375 C35.85303156 64.77421694 32.26906553 60.77957116 29.1875 54.625 C24.73438555 46.03601144 17.66498512 40.99344975 9.6875 35.8125 C2.20236604 30.93422448 -0.93964215 26.71926732 -4.0234375 18.3203125 C-4.95917254 15.79309231 -4.95917254 15.79309231 -7.1875 13.3125 C-9.63619859 10.18829836 -10 7.93961385 -10 4 C-7.3198469 -0.18103883 -4.78963003 -0.82897443 0 0 Z " fill="#F6AC86" transform="translate(214,74)"/>
<path d="M0 0 C2.0078125 0.328125 2.0078125 0.328125 3.77734375 1.5234375 C5.47255702 4.0097503 5.18595632 5.50216427 4.8203125 8.453125 C4.72363281 9.34257812 4.62695312 10.23203125 4.52734375 11.1484375 C4.27017578 12.22738281 4.27017578 12.22738281 4.0078125 13.328125 C0.99457055 14.83474597 -1.67505127 14.50582873 -4.9921875 14.328125 C-5.9821875 13.338125 -5.9821875 13.338125 -6.9921875 12.328125 C-7.19972656 12.94558594 -7.40726563 13.56304687 -7.62109375 14.19921875 C-10.05710645 20.89570555 -13.35818051 25.93913934 -17.9921875 31.328125 C-16.11147882 35.23421227 -14.16047528 38.30065001 -10.9921875 41.328125 C-7.2421587 41.35336828 -7.2421587 41.35336828 -3.9921875 40.328125 C-3.18251312 37.41329722 -2.77372757 35.86699283 -3.9296875 33.015625 C-4.2803125 32.45875 -4.6309375 31.901875 -4.9921875 31.328125 C-1.1171875 33.203125 -1.1171875 33.203125 0.0078125 34.328125 C-0.1171875 37.703125 -0.1171875 37.703125 -0.9921875 41.328125 C-3.87143242 43.67698269 -5.26691683 44.328125 -8.9921875 44.328125 C-8.71955078 44.89732666 -8.44691406 45.46652832 -8.16601562 46.05297852 C-6.92738772 48.65912573 -5.70972584 51.2745629 -4.4921875 53.890625 C-3.84830078 55.23350586 -3.84830078 55.23350586 -3.19140625 56.60351562 C-0.87109614 61.6308542 0.88157261 65.67052832 0.0078125 71.328125 C-1.171875 73.25 -1.171875 73.25 -2.9921875 74.328125 C-5.4375 74.65625 -5.4375 74.65625 -8.1171875 74.578125 C-9.00664062 74.56265625 -9.89609375 74.5471875 -10.8125 74.53125 C-12.9921875 74.328125 -12.9921875 74.328125 -13.9921875 73.328125 C-14.17394531 73.95460938 -14.35570312 74.58109375 -14.54296875 75.2265625 C-14.79433594 76.04382813 -15.04570312 76.86109375 -15.3046875 77.703125 C-15.54832031 78.51523437 -15.79195313 79.32734375 -16.04296875 80.1640625 C-16.9921875 82.328125 -16.9921875 82.328125 -19.9921875 84.328125 C-22.32418138 84.40717564 -24.66051372 84.41611269 -26.9921875 84.328125 C-28.13572117 88.12633382 -28.35422694 91.97677353 -28.640625 95.91015625 C-28.75989556 97.41475494 -28.87970428 98.91931105 -29 100.42382812 C-29.18522083 102.78000369 -29.36686737 105.13624272 -29.5390625 107.4934082 C-29.70775637 109.77916226 -29.89180304 112.0632802 -30.078125 114.34765625 C-30.12512543 115.04268753 -30.17212585 115.73771881 -30.22055054 116.45381165 C-30.63553481 121.34543605 -31.89380386 124.96341603 -33.9921875 129.328125 C-54.76544038 130.63711496 -75.48627619 131.53191661 -96.3046875 131.515625 C-97.23158386 131.5163501 -98.15848022 131.5170752 -99.11346436 131.51782227 C-101.73587957 131.5175889 -104.35808806 131.50898349 -106.98046875 131.49609375 C-107.76514023 131.49490036 -108.54981171 131.49370697 -109.35826111 131.49247742 C-114.75847708 131.44498021 -114.75847708 131.44498021 -116.9921875 130.328125 C-116.1171875 123.578125 -116.1171875 123.578125 -114.9921875 121.328125 C-115.683125 121.13347656 -116.3740625 120.93882812 -117.0859375 120.73828125 C-121.07370795 118.803355 -123.54097594 116.02078194 -126.4921875 112.765625 C-127.06735107 112.13881836 -127.64251465 111.51201172 -128.23510742 110.86621094 C-137.9921875 99.99367701 -137.9921875 99.99367701 -137.9921875 94.328125 C-134.31718503 95.55312582 -134.30733667 96.2408878 -132.6171875 99.578125 C-129.79551395 104.47706074 -126.42813954 108.3801579 -122.4921875 112.390625 C-121.67355225 113.24865723 -121.67355225 113.24865723 -120.83837891 114.12402344 C-118.24656651 116.69484006 -116.40140958 118.18305135 -112.91796875 119.41796875 C-109.11586963 119.30121537 -107.69825785 118.11660266 -104.6796875 115.828125 C-98.45173657 111.50912092 -91.97124426 109.69120901 -84.6796875 107.828125 C-77.01979435 105.84825666 -69.76629868 103.76452371 -62.6796875 100.203125 C-62.04699951 99.89052734 -61.41431152 99.57792969 -60.76245117 99.25585938 C-54.12620595 95.72537323 -51.47096354 90.77491462 -48.7421875 84.015625 C-48.4740625 83.37044922 -48.2059375 82.72527344 -47.9296875 82.06054688 C-47.27657269 80.48607368 -46.63334346 78.90750584 -45.9921875 77.328125 C-47.08080078 78.44767578 -47.08080078 78.44767578 -48.19140625 79.58984375 C-50.63599063 81.97987674 -53.08898087 84.07344532 -55.8046875 86.140625 C-56.98998047 87.04748047 -56.98998047 87.04748047 -58.19921875 87.97265625 C-58.79089844 88.41996094 -59.38257812 88.86726563 -59.9921875 89.328125 C-59.9921875 88.338125 -59.9921875 87.348125 -59.9921875 86.328125 C-58.15625 84.55859375 -58.15625 84.55859375 -55.6171875 82.515625 C-44.80406765 73.00492574 -38.19616952 60.45111856 -31.11669922 48.10351562 C-27.28382187 41.4425878 -23.24879934 35.08302846 -18.76953125 28.84375 C-16.60253444 25.77661606 -14.76195622 22.63682305 -12.9921875 19.328125 C-13.3840625 19.84375 -13.7759375 20.359375 -14.1796875 20.890625 C-15.9921875 22.328125 -15.9921875 22.328125 -18.1796875 22.390625 C-22.35021995 20.81509052 -25.55191861 18.11960869 -28.9921875 15.328125 C-28.6621875 14.338125 -28.3321875 13.348125 -27.9921875 12.328125 C-32.17335724 17.45450599 -36.17554061 22.5858585 -39.8671875 28.078125 C-43.72013637 33.39383724 -47.78923791 37.01273829 -53.9921875 39.328125 C-57.18365042 39.75838148 -59.75670334 39.64123637 -62.9921875 39.328125 C-61.6721875 38.998125 -60.3521875 38.668125 -58.9921875 38.328125 C-59.03859375 37.75707031 -59.085 37.18601563 -59.1328125 36.59765625 C-59.47398501 28.93345952 -57.51553744 22.51516634 -54.9921875 15.328125 C-54.3321875 15.328125 -53.6721875 15.328125 -52.9921875 15.328125 C-53.3221875 17.308125 -53.6521875 19.288125 -53.9921875 21.328125 C-53.0434375 20.68875 -52.0946875 20.049375 -51.1171875 19.390625 C-47.9921875 17.328125 -47.9921875 17.328125 -45.9921875 16.328125 C-47.49414416 20.1512874 -49.75932123 21.8837627 -52.9921875 24.328125 C-55.08972597 26.05074113 -55.89731343 26.9087961 -56.50390625 29.58984375 C-56.56191406 30.39035156 -56.61992188 31.19085938 -56.6796875 32.015625 C-56.74542969 32.82386719 -56.81117187 33.63210937 -56.87890625 34.46484375 C-56.91628906 35.07972656 -56.95367187 35.69460937 -56.9921875 36.328125 C-53.06143106 35.75359754 -53.06143106 35.75359754 -49.9921875 33.328125 C-49.4971875 32.338125 -49.4971875 32.338125 -48.9921875 31.328125 C-48.3528125 31.18375 -47.7134375 31.039375 -47.0546875 30.890625 C-44.61007895 30.46647465 -44.61007895 30.46647465 -42.9921875 27.328125 C-45.6321875 26.998125 -48.2721875 26.668125 -50.9921875 26.328125 C-50.9921875 25.668125 -50.9921875 25.008125 -50.9921875 24.328125 C-50.27933594 24.44414062 -49.56648438 24.56015625 -48.83203125 24.6796875 C-45.64909539 24.97956033 -43.12311869 25.01684536 -39.9921875 24.328125 C-36.89999698 21.43026808 -35.03558031 18.01160941 -32.9921875 14.328125 C-27.47212242 5.87354257 -27.47212242 5.87354257 -22.9921875 3.328125 C-18.21945292 2.48331614 -15.02741208 2.65205997 -10.9296875 5.328125 C-10.2903125 5.988125 -9.6509375 6.648125 -8.9921875 7.328125 C-8.6828125 6.35875 -8.3734375 5.389375 -8.0546875 4.390625 C-6.34884076 -0.52622735 -5.0536472 0.18648145 0 0 Z " fill="#444952" transform="translate(144.9921875,183.671875)"/>
<path d="M0 0 C29.7 0 59.4 0 90 0 C90.185625 8.889375 90.37125 17.77875 90.5625 26.9375 C90.62381104 29.74757568 90.68512207 32.55765137 90.74829102 35.45288086 C90.79223276 37.66519385 90.83579747 39.87751437 90.87890625 42.08984375 C90.90561401 43.25068481 90.93232178 44.41152588 90.95983887 45.60754395 C90.98026245 46.70377075 91.00068604 47.79999756 91.02172852 48.92944336 C91.04171402 49.88652695 91.06169952 50.84361053 91.08229065 51.82969666 C91 54 91 54 90 55 C88.21928754 55.08726223 86.4351686 55.10699041 84.65234375 55.09765625 C83.57275391 55.09443359 82.49316406 55.09121094 81.38085938 55.08789062 C80.24455078 55.07951172 79.10824219 55.07113281 77.9375 55.0625 C76.79732422 55.05798828 75.65714844 55.05347656 74.48242188 55.04882812 C71.65489649 55.03699747 68.8274736 55.0205141 66 55 C65.94231445 54.24581787 65.88462891 53.49163574 65.82519531 52.71459961 C65.74366211 51.72468018 65.66212891 50.73476074 65.578125 49.71484375 C65.49981445 48.73378662 65.42150391 47.75272949 65.34082031 46.74194336 C64.77474513 42.18779552 63.31101046 39.22512538 59.97265625 36.10546875 C56.10207988 33.36402241 52.03323932 31.61475773 47.6875 29.75 C37.89044425 25.45076011 28.22575368 20.9026798 18.80859375 15.81640625 C15.54830598 14.34469968 12.3921395 13.97965525 9 15 C7.3094936 16.8682263 6.23857647 18.71126902 5.10546875 20.95703125 C4 23 4 23 1 26 C0.67 17.42 0.34 8.84 0 0 Z " fill="#F4BE42" transform="translate(233,27)"/>
<path d="M0 0 C0.44730469 0.44472656 0.89460938 0.88945312 1.35546875 1.34765625 C4.99897022 5.00380132 4.99897022 5.00380132 9.8125 6 C12.1452707 5.08746865 12.1452707 5.08746865 14 3 C13.1440049 15.62592765 9.17943265 28.08170375 1.3203125 38.15234375 C-0.23286687 39.96074535 -0.23286687 39.96074535 -0.0625 42.5 C1.4311837 46.01454989 3.75729353 47.13716863 7 49 C1.94487516 52.37008322 -4.11494661 51.79294554 -10.0625 52.125 C-10.76931915 52.16702545 -11.47613831 52.2090509 -12.20437622 52.25234985 C-25.44479208 53.0247305 -38.6769309 53.18835492 -51.9375 53.1875 C-53.34420456 53.18885956 -53.34420456 53.18885956 -54.77932739 53.19024658 C-57.44541439 53.18995407 -60.11129193 53.18110696 -62.77734375 53.16796875 C-63.98292435 53.16616356 -63.98292435 53.16616356 -65.21286011 53.1643219 C-70.76635204 53.11682398 -70.76635204 53.11682398 -73 52 C-72.125 45.25 -72.125 45.25 -71 43 C-69.25 42.578125 -69.25 42.578125 -67 42.25 C-63.19378074 41.49837692 -60.70367752 40.330195 -57.5625 38.0625 C-52.90066707 34.74866695 -48.51246919 33.35934186 -43 32 C-21.90560932 27.13570774 -21.90560932 27.13570774 -6.1875 13.125 C-3.80375299 8.90378133 -1.85430256 4.4751883 0 0 Z " fill="#5AC4A6" transform="translate(101,262)"/>
<path d="M0 0 C4.46776612 2.03080278 7.21536647 4.13903139 10.5 7.75 C16.00126805 13.46285528 22.98485593 16.54378215 30 20 C31.50982057 20.75901395 33.0189246 21.51945475 34.52734375 22.28125 C38.34338171 24.20429275 42.16892001 26.10711422 46 28 C46 28.66 46 29.32 46 30 C30.32496472 23.82919058 16.02222291 16.65973351 3.53515625 5.2265625 C-0.17993315 2.25827224 -3.253942 1.49510021 -8 2 C-10.08333333 2.91666667 -10.08333333 2.91666667 -11 5 C-11.11613035 10.80651747 -8.85975527 14.05592901 -5.53125 18.671875 C-4.0272861 20.95851399 -3.12769909 23.06556914 -2.1875 25.625 C0.13757 31.12321881 4.17423282 33.72406063 9 37 C17.48772012 42.88069248 24.62853782 48.29100747 29.5 57.5625 C33.08961017 64.32486238 38.0896842 68.42299268 44.3125 72.75 C49.63741018 76.45555393 53.45377602 80.76528748 57.41796875 85.875 C60.21256748 88.17494207 61.89488668 88.78465503 65.51342773 88.54638672 C71.29600706 87.2757522 76.59903711 84.55556428 81.9375 82.0625 C83.19275838 81.49151546 84.44861405 80.9218421 85.70507812 80.35351562 C91.20272561 78.22642938 91.20272561 78.22642938 96 75 C96.73132695 67.64371128 94.44678961 62.17816459 91.6875 55.4375 C86.86730622 43.12827287 83.14833278 31.40587283 84 18 C86.39842076 21.84767926 86.70573181 26.04220864 87.3125 30.4375 C88.53397285 38.58671698 90.72830639 45.39552295 94 53 C98.29 53.33 102.58 53.66 107 54 C107 83.37 107 112.74 107 143 C57.5632716 144.14969136 57.5632716 144.14969136 36.3125 144.0625 C28.949375 144.041875 21.58625 144.02125 14 144 C14 114.63 14 85.26 14 55 C18.95 54.505 18.95 54.505 24 54 C21.86566946 51.09367756 19.70854443 48.39113688 17 46 C13.45812169 45.66661404 13.45812169 45.66661404 10 46 C4.6727639 43.54947139 2.70962998 40.19731789 0.1640625 35.171875 C-1.01232121 32.80002332 -1.01232121 32.80002332 -3.25 30.3125 C-5.35581451 27.52981654 -5.53324162 25.41200378 -6 22 C-6.59949463 22.01047363 -7.19898926 22.02094727 -7.81665039 22.03173828 C-10.5652233 22.07362837 -13.31372874 22.09943003 -16.0625 22.125 C-17.00544922 22.14175781 -17.94839844 22.15851563 -18.91992188 22.17578125 C-20.30727539 22.18544922 -20.30727539 22.18544922 -21.72265625 22.1953125 C-22.56578369 22.20578613 -23.40891113 22.21625977 -24.27758789 22.22705078 C-27 22 -27 22 -30.18554688 21.01367188 C-34.95746609 19.74555817 -39.39311712 19.64723366 -44.30859375 19.5859375 C-45.27531509 19.56657135 -46.24203644 19.5472052 -47.23805237 19.5272522 C-50.30444713 19.46780809 -53.37088016 19.42121231 -56.4375 19.375 C-58.52540636 19.33678783 -60.6132975 19.29773424 -62.70117188 19.2578125 C-67.80065662 19.16213562 -72.90021511 19.07797545 -78 19 C-78 18.67 -78 18.34 -78 18 C-76.68394775 17.97494385 -75.36789551 17.9498877 -74.01196289 17.92407227 C-69.09732467 17.82941316 -64.18280867 17.72933876 -59.26831055 17.62768555 C-57.14724602 17.58455675 -55.02615169 17.54286764 -52.9050293 17.50268555 C-49.84414717 17.44444466 -46.78341206 17.38090952 -43.72265625 17.31640625 C-42.78478775 17.29969376 -41.84691925 17.28298126 -40.88063049 17.26576233 C-35.19509499 17.13979871 -29.64350264 16.70764134 -24 16 C-24.99 16.495 -24.99 16.495 -26 17 C-26 17.99 -26 18.98 -26 20 C-23.03 20 -20.06 20 -17 20 C-17 18.68 -17 17.36 -17 16 C-18.65 16 -20.3 16 -22 16 C-19.06279492 14.47700477 -16.0831351 13.19899698 -13 12 C-13.495 8.535 -13.495 8.535 -14 5 C-34.79 4.67 -55.58 4.34 -77 4 C-77 3.34 -77 2.68 -77 2 C-76.18202942 1.99191315 -75.36405884 1.98382629 -74.52130127 1.97549438 C-66.81114668 1.89754036 -59.10118111 1.81024734 -51.39125443 1.71247292 C-47.42753853 1.66253574 -43.46384895 1.61620556 -39.5 1.578125 C-35.6743701 1.54123948 -31.84896174 1.49487082 -28.02352142 1.44193649 C-26.56433754 1.42340987 -25.1051062 1.40829549 -23.64585114 1.39665604 C-21.60123529 1.37976362 -19.5571249 1.35072247 -17.51269531 1.31884766 C-16.34909485 1.30552399 -15.18549438 1.29220032 -13.9866333 1.2784729 C-0.0775641 -0.01840504 -0.0775641 -0.01840504 0 0 Z M95 56 C95.44805842 58.61367414 95.9257919 60.84285343 97.0625 63.25 C98.36623475 67.0742886 99.01234914 71.04263516 98 75 C93.82837568 79.43289515 88.02006244 81.34712004 82.5 83.625 C81.56285156 84.01945312 80.62570312 84.41390625 79.66015625 84.8203125 C77.11087122 85.89065061 74.55849644 86.95188515 72 88 C71.13439453 88.36399902 70.26878906 88.72799805 69.37695312 89.10302734 C66.3218332 90.25591463 64.24790648 90.39770283 61 90 C57.10378081 88.0518904 54.86071034 85.93046008 52.5 82.375 C49.60355763 78.23832565 46.11499385 75.7440494 42 72.9375 C35.38452265 68.42053601 30.67717603 64.35435206 27 57 C23.7 57 20.4 57 17 57 C17 85.05 17 113.1 17 142 C29.28204636 142 41.54990556 141.97570885 53.828125 141.78125 C55.80304932 141.7517627 55.80304932 141.7517627 57.81787109 141.72167969 C62.62860556 141.6494214 67.43930081 141.57457021 72.25 141.5 C83.0575 141.335 93.865 141.17 105 141 C105 112.95 105 84.9 105 56 C101.7 56 98.4 56 95 56 Z " fill="#4B525D" transform="translate(216,73)"/>
<path d="M0 0 C0.66 0 1.32 0 2 0 C1 2 0 4 -1 6 C3.95 5.67 8.9 5.34 14 5 C11 8 11 8 7.890625 8.1171875 C6.08851563 7.99730469 6.08851563 7.99730469 4.25 7.875 C-0.44234111 7.7487051 -3.53433453 7.67086782 -7.375 10.5 C-8.24125 11.325 -9.1075 12.15 -10 13 C-8.06280622 13.05406122 -6.12518079 13.09282025 -4.1875 13.125 C-3.10855469 13.14820312 -2.02960938 13.17140625 -0.91796875 13.1953125 C2.19402868 13.23023717 2.19402868 13.23023717 5 11 C5.99 11.33 6.98 11.66 8 12 C7.36191406 12.40992187 6.72382813 12.81984375 6.06640625 13.2421875 C5.24011719 13.78101562 4.41382813 14.31984375 3.5625 14.875 C2.73878906 15.40867187 1.91507813 15.94234375 1.06640625 16.4921875 C-1.11038871 17.83834306 -1.11038871 17.83834306 -2 20 C2.22932952 19.85867396 6.45841971 19.71108331 10.6875 19.5625 C11.86634766 19.52318359 13.04519531 19.48386719 14.25976562 19.44335938 C19.8447463 19.24444226 25.40130623 18.9892699 30.96875 18.5 C40.8947303 17.69090304 50.85967256 17.63378453 60.8125 17.4375 C62.87305384 17.39421037 64.93360082 17.35059314 66.99414062 17.30664062 C71.99602276 17.20065146 76.99797665 17.09909098 82 17 C82.87890625 23.15234375 82.87890625 23.15234375 83 25 C82.505 25.495 82.505 25.495 82 26 C79.03 26 76.06 26 73 26 C73 34.25 73 42.5 73 51 C66.73 51 60.46 51 54 51 C52.43108518 46.29325554 51.51470841 42.46850655 50.875 37.625 C50.70742188 36.37976563 50.53984375 35.13453125 50.3671875 33.8515625 C50.24601562 32.91054687 50.12484375 31.96953125 50 31 C49.34 31 48.68 31 48 31 C48 29.68 48 28.36 48 27 C42.86279968 27.26509852 37.72567975 27.53169328 32.58862305 27.79956055 C30.8480835 27.89012182 29.10752415 27.98030339 27.36694336 28.07006836 C25.67640087 28.15730016 23.98589445 28.24523381 22.29542542 28.33387756 C20.61532964 28.42125985 18.93509891 28.50608456 17.25474548 28.58836365 C13.39171404 28.78441223 9.55063248 29.02372591 5.70336914 29.42797852 C-1.87187607 30.17064961 -7.00193336 30.31771073 -13.4375 26.0625 C-14.08525391 25.67642578 -14.73300781 25.29035156 -15.40039062 24.89257812 C-16.95346618 23.96073279 -18.48019607 22.98517786 -20 22 C-14.89384727 14.92859262 -9.32258357 9.18888194 -2.671875 3.55078125 C-0.89673637 2.08649533 -0.89673637 2.08649533 0 0 Z " fill="#EA6B79" transform="translate(251,64)"/>
<path d="M0 0 C0.80659058 -0.00776459 1.61318115 -0.01552917 2.44421387 -0.02352905 C19.16020785 -0.15050051 19.16020785 -0.15050051 26.625 3.375 C28.92022619 6.81783928 28.89278547 8.16394506 28.94384766 12.22338867 C28.96371735 13.4244072 28.98358704 14.62542572 29.00405884 15.86283875 C29.01561005 17.15978165 29.02716125 18.45672455 29.0390625 19.79296875 C29.05777377 21.13390801 29.07734716 22.4748355 29.0977478 23.81575012 C29.14907965 27.3420009 29.18869948 30.86828987 29.22589111 34.39471436 C29.26592432 37.99435885 29.31701974 41.59384439 29.3671875 45.19335938 C29.46395905 52.25378985 29.54835981 59.31431999 29.625 66.375 C28.965 66.375 28.305 66.375 27.625 66.375 C26.32784361 63.78068722 26.4718665 61.85248552 26.43554688 58.94726562 C26.41882935 57.81268921 26.40211182 56.67811279 26.3848877 55.50915527 C26.37131226 54.27894653 26.35773682 53.04873779 26.34375 51.78125 C26.32534058 50.52364868 26.30693115 49.26604736 26.28796387 47.97033691 C26.21904426 43.25322162 26.15872785 38.53602441 26.09893799 33.81878662 C26.03996198 29.20202342 25.97383089 24.58539693 25.90625 19.96875 C25.89267456 18.73854126 25.87909912 17.50833252 25.8651123 16.24084473 C25.84839478 15.10626831 25.83167725 13.97169189 25.81445312 12.80273438 C25.80192505 11.80060913 25.78939697 10.79848389 25.77648926 9.76599121 C25.78000629 7.36021039 25.78000629 7.36021039 24.625 5.375 C19.12156289 3.66116882 14.08522743 3.05692963 8.34765625 3.0390625 C7.57804062 3.0324057 6.80842499 3.0257489 6.01548767 3.01889038 C4.39275473 3.00882562 2.76998092 3.00407143 1.1472168 3.00439453 C-1.27564226 3.00006585 -3.69660811 2.96380694 -6.11914062 2.92578125 C-22.17176241 2.80918368 -38.41582994 5.00024336 -51.125 15.6875 C-54.10462486 17.92221864 -56.72691731 17.94656238 -60.375 18.375 C-60.107179 27.72892833 -59.82144228 37.08207887 -59.50732422 46.43457031 C-59.42864266 48.77759694 -59.35154282 51.12067891 -59.27783203 53.46386719 C-59.1610314 67.30513923 -59.1610314 67.30513923 -55.375 80.375 C-53.37779871 82.19538669 -51.5548426 83.35595349 -49.1171875 84.5078125 C-47.375 85.375 -47.375 85.375 -46.375 87.375 C-44.05343403 87.78229228 -41.7181213 88.11938677 -39.375 88.375 C-39.375 89.035 -39.375 89.695 -39.375 90.375 C-49.96807508 90.99207233 -49.96807508 90.99207233 -54.9375 88.8125 C-60.41174137 83.33825863 -60.90394776 76.96404616 -61.32421875 69.59375 C-61.38656204 68.66260376 -61.44890533 67.73145752 -61.51313782 66.77209473 C-61.64236467 64.80580008 -61.76555705 62.83910058 -61.88305664 60.87207031 C-62.06033956 57.91108379 -62.25597924 54.95177879 -62.45507812 51.9921875 C-64.63561814 18.59882991 -64.63561814 18.59882991 -59.375 12.375 C-44.86991011 -1.90088983 -18.85113839 0.08409481 0 0 Z " fill="#303A48" transform="translate(85.375,125.625)"/>
<path d="M0 0 C2.0078125 0.328125 2.0078125 0.328125 3.77734375 1.5234375 C5.47255702 4.0097503 5.18595632 5.50216427 4.8203125 8.453125 C4.72363281 9.34257812 4.62695312 10.23203125 4.52734375 11.1484375 C4.27017578 12.22738281 4.27017578 12.22738281 4.0078125 13.328125 C0.99457055 14.83474597 -1.67505127 14.50582873 -4.9921875 14.328125 C-5.6521875 13.668125 -6.3121875 13.008125 -6.9921875 12.328125 C-7.17652344 12.91078125 -7.36085937 13.4934375 -7.55078125 14.09375 C-10.35215779 22.0123077 -14.77421192 27.83910408 -19.9921875 34.328125 C-20.9821875 33.833125 -20.9821875 33.833125 -21.9921875 33.328125 C-19.0221875 29.038125 -16.0521875 24.748125 -12.9921875 20.328125 C-13.9821875 20.988125 -14.9721875 21.648125 -15.9921875 22.328125 C-21.31289853 22.328125 -25.06249216 18.51673636 -28.9921875 15.328125 C-28.6621875 14.338125 -28.3321875 13.348125 -27.9921875 12.328125 C-32.17335724 17.45450599 -36.17554061 22.5858585 -39.8671875 28.078125 C-43.72013637 33.39383724 -47.78923791 37.01273829 -53.9921875 39.328125 C-57.18365042 39.75838148 -59.75670334 39.64123637 -62.9921875 39.328125 C-61.0121875 38.833125 -61.0121875 38.833125 -58.9921875 38.328125 C-59.06179687 37.47154297 -59.06179687 37.47154297 -59.1328125 36.59765625 C-59.47398501 28.93345952 -57.51553744 22.51516634 -54.9921875 15.328125 C-54.3321875 15.328125 -53.6721875 15.328125 -52.9921875 15.328125 C-53.3221875 17.308125 -53.6521875 19.288125 -53.9921875 21.328125 C-53.0434375 20.68875 -52.0946875 20.049375 -51.1171875 19.390625 C-47.9921875 17.328125 -47.9921875 17.328125 -45.9921875 16.328125 C-47.49414416 20.1512874 -49.75932123 21.8837627 -52.9921875 24.328125 C-55.08972597 26.05074113 -55.89731343 26.9087961 -56.50390625 29.58984375 C-56.56191406 30.39035156 -56.61992188 31.19085938 -56.6796875 32.015625 C-56.74542969 32.82386719 -56.81117187 33.63210937 -56.87890625 34.46484375 C-56.91628906 35.07972656 -56.95367187 35.69460937 -56.9921875 36.328125 C-53.06143106 35.75359754 -53.06143106 35.75359754 -49.9921875 33.328125 C-49.6621875 32.668125 -49.3321875 32.008125 -48.9921875 31.328125 C-48.3528125 31.18375 -47.7134375 31.039375 -47.0546875 30.890625 C-44.61007895 30.46647465 -44.61007895 30.46647465 -42.9921875 27.328125 C-45.6321875 26.998125 -48.2721875 26.668125 -50.9921875 26.328125 C-50.9921875 25.668125 -50.9921875 25.008125 -50.9921875 24.328125 C-49.92291016 24.50214844 -49.92291016 24.50214844 -48.83203125 24.6796875 C-45.64909539 24.97956033 -43.12311869 25.01684536 -39.9921875 24.328125 C-36.89999698 21.43026808 -35.03558031 18.01160941 -32.9921875 14.328125 C-27.47212242 5.87354257 -27.47212242 5.87354257 -22.9921875 3.328125 C-18.21945292 2.48331614 -15.02741208 2.65205997 -10.9296875 5.328125 C-10.2903125 5.988125 -9.6509375 6.648125 -8.9921875 7.328125 C-8.6828125 6.35875 -8.3734375 5.389375 -8.0546875 4.390625 C-6.34884076 -0.52622735 -5.0536472 0.18648145 0 0 Z " fill="#45474A" transform="translate(144.9921875,183.671875)"/>
<path d="M0 0 C7.59 0 15.18 0 23 0 C23 8.25 23 16.5 23 25 C16.73 25 10.46 25 4 25 C2.46610525 20.39831575 1.52299193 16.66372686 0.875 11.9375 C0.70742188 10.75027344 0.53984375 9.56304687 0.3671875 8.33984375 C0 5 0 5 0 0 Z " fill="#F3BD42" transform="translate(301,90)"/>
<path d="M0 0 C8.48440254 4.24220127 11.45127271 11.57325626 15 20 C15.39574219 20.81210938 15.79148438 21.62421875 16.19921875 22.4609375 C18.45951063 27.10841484 19.7557524 30.70973323 19 36 C16 38 16 38 12.6875 37.9375 C7.00747167 36.493425 4.36842573 34.09866189 1.2578125 29.328125 C-0.32068667 26.57848128 -1.82758727 23.94699853 -3 21 C-2.0022242 18.00667261 -1.2477975 17.05233685 1 15 C0.01 15.66 -0.98 16.32 -2 17 C-4.0625 16.875 -4.0625 16.875 -6 16 C-6.66 14.68 -7.32 13.36 -8 12 C-5.36 8.04 -2.72 4.08 0 0 Z " fill="#F1A984" transform="translate(124,219)"/>
<path d="M0 0 C4.46776612 2.03080278 7.21536647 4.13903139 10.5 7.75 C16.00126805 13.46285528 22.98485593 16.54378215 30 20 C31.50982057 20.75901395 33.0189246 21.51945475 34.52734375 22.28125 C38.34338171 24.20429275 42.16892001 26.10711422 46 28 C46 28.66 46 29.32 46 30 C30.32496472 23.82919058 16.02222291 16.65973351 3.53515625 5.2265625 C-0.17993315 2.25827224 -3.253942 1.49510021 -8 2 C-10.10242444 2.85219923 -10.10242444 2.85219923 -11 5 C-10.93459739 7.7632604 -10.49372856 10.26205073 -10 13 C-10.99 12.67 -11.98 12.34 -13 12 C-13.495 8.535 -13.495 8.535 -14 5 C-34.79 4.67 -55.58 4.34 -77 4 C-77 3.34 -77 2.68 -77 2 C-76.18202942 1.99191315 -75.36405884 1.98382629 -74.52130127 1.97549438 C-66.81114668 1.89754036 -59.10118111 1.81024734 -51.39125443 1.71247292 C-47.42753853 1.66253574 -43.46384895 1.61620556 -39.5 1.578125 C-35.6743701 1.54123948 -31.84896174 1.49487082 -28.02352142 1.44193649 C-26.56433754 1.42340987 -25.1051062 1.40829549 -23.64585114 1.39665604 C-21.60123529 1.37976362 -19.5571249 1.35072247 -17.51269531 1.31884766 C-16.34909485 1.30552399 -15.18549438 1.29220032 -13.9866333 1.2784729 C-0.0775641 -0.01840504 -0.0775641 -0.01840504 0 0 Z M-12 14 C-13.32 14.33 -14.64 14.66 -16 15 C-15.505 17.97 -15.505 17.97 -15 21 C-12.69 21 -10.38 21 -8 21 C-8 21.33 -8 21.66 -8 22 C-11.02107902 22.0543251 -14.04116528 22.09382927 -17.0625 22.125 C-17.91005859 22.14175781 -18.75761719 22.15851563 -19.63085938 22.17578125 C-20.46552734 22.18222656 -21.30019531 22.18867187 -22.16015625 22.1953125 C-22.91949463 22.20578613 -23.67883301 22.21625977 -24.46118164 22.22705078 C-27 22 -27 22 -30.15820312 21.01367188 C-34.94133028 19.75162663 -39.38376682 19.64735026 -44.30859375 19.5859375 C-45.27531509 19.56657135 -46.24203644 19.5472052 -47.23805237 19.5272522 C-50.30444713 19.46780809 -53.37088016 19.42121231 -56.4375 19.375 C-58.52540636 19.33678783 -60.6132975 19.29773424 -62.70117188 19.2578125 C-67.80065662 19.16213562 -72.90021511 19.07797545 -78 19 C-78 18.67 -78 18.34 -78 18 C-76.68394775 17.97494385 -75.36789551 17.9498877 -74.01196289 17.92407227 C-69.09732467 17.82941316 -64.18280867 17.72933876 -59.26831055 17.62768555 C-57.14724602 17.58455675 -55.02615169 17.54286764 -52.9050293 17.50268555 C-49.84414717 17.44444466 -46.78341206 17.38090952 -43.72265625 17.31640625 C-42.78478775 17.29969376 -41.84691925 17.28298126 -40.88063049 17.26576233 C-35.19509499 17.13979871 -29.64350264 16.70764134 -24 16 C-24.66 16.33 -25.32 16.66 -26 17 C-26 17.99 -26 18.98 -26 20 C-23.03 20 -20.06 20 -17 20 C-17 18.68 -17 17.36 -17 16 C-18.65 16 -20.3 16 -22 16 C-15.75 12.875 -15.75 12.875 -12 14 Z " fill="#313C49" transform="translate(216,73)"/>
<path d="M0 0 C0.66 0 1.32 0 2 0 C2.08636719 1.01578125 2.17273438 2.0315625 2.26171875 3.078125 C3.28526678 13.61026731 5.10810877 23.29262581 11.875 31.8125 C14 35 14 35 13.875 38.6875 C13.58625 39.780625 13.2975 40.87375 13 42 C12.66500165 43.33291597 12.33128166 44.66615542 12 46 C19.29548022 45.89071381 26.59089554 45.77778879 33.88625431 45.66066074 C37.27660608 45.60633307 40.666965 45.55344946 44.05737305 45.50268555 C60.72081611 45.25231662 77.3552128 44.83981313 94 44 C93 46 93 46 91.33042908 46.59132385 C77.41889538 49.03092266 62.7828396 48.38179625 48.68437862 48.49662876 C44.9151496 48.52740415 41.14760057 48.57440124 37.37915039 48.65844727 C33.69292004 48.74035262 30.00816776 48.78305254 26.32107735 48.79795647 C24.92668372 48.81017081 23.53233692 48.83612817 22.1384716 48.87640572 C11.3178167 49.17420973 11.3178167 49.17420973 8.04975891 46.26228333 C6.72732398 44.20031037 5.80802686 42.30712096 5 40 C4.46826172 38.60974609 4.46826172 38.60974609 3.92578125 37.19140625 C1.0809806 24.99681495 -0.48722759 12.5325763 0 0 Z " fill="#334655" transform="translate(19,68)"/>
<path d="M0 0 C0.99 0 1.98 0 3 0 C4.24609375 1.46875 4.24609375 1.46875 5.4375 3.5 C5.86546875 4.22703125 6.2934375 4.9540625 6.734375 5.703125 C8.59828399 9.08577464 10.32595263 12.52032075 12 16 C12.35964844 16.66515625 12.71929687 17.3303125 13.08984375 18.015625 C14.51820115 21.12981196 14.36092878 23.6313314 14 27 C12.375 29.4375 12.375 29.4375 10 31 C6.9375 31.5 6.9375 31.5 4 31 C1.52603949 28.26496828 0.22809591 25.42765552 -1.0625 22 C-1.99517718 19.54282639 -2.90069673 17.18795464 -4.12890625 14.86328125 C-5.49490755 11.9413861 -4.84193203 10.06703811 -4 7 C-2.78924219 4.56377882 -1.43692145 2.31761525 0 0 Z " fill="#F2A985" transform="translate(114,235)"/>
<path d="M0 0 C-1.75 3.875 -1.75 3.875 -4 5 C-6.3329866 5.04022391 -8.66706666 5.04320247 -11 5 C-12.14353367 8.79820882 -12.36203944 12.64864853 -12.6484375 16.58203125 C-12.76770806 18.08662994 -12.88751678 19.59118605 -13.0078125 21.09570312 C-13.19303333 23.45187869 -13.37467987 25.80811772 -13.546875 28.1652832 C-13.71556887 30.45103726 -13.89961554 32.7351552 -14.0859375 35.01953125 C-14.15643814 36.06207817 -14.15643814 36.06207817 -14.22836304 37.12568665 C-14.64334731 42.01731105 -15.90161636 45.63529103 -18 50 C-19.27450447 49.40361667 -20.54446877 48.79752584 -21.8125 48.1875 C-22.52019531 47.85105469 -23.22789063 47.51460938 -23.95703125 47.16796875 C-26.11889576 45.93202709 -27.56437428 45.04612436 -29 43 C-28.77757786 39.11079 -27.2691366 36.47521924 -25.1875 33.25 C-19.11719841 23.37853336 -16.1057653 13.08656383 -13 2 C-11.01432292 2.06510417 -9.02864583 2.13020833 -7.04296875 2.1953125 C-4.1877684 1.9223488 -2.88406488 0 0 0 Z " fill="#313C49" transform="translate(129,263)"/>
<path d="M0 0 C2 2 2 2 2.22705078 3.88591003 C2.21657715 4.6534108 2.20610352 5.42091156 2.1953125 6.21166992 C2.18870605 7.08405807 2.18209961 7.95644623 2.17529297 8.85527039 C2.15869629 9.80408585 2.14209961 10.75290131 2.125 11.73046875 C2.11742676 12.71308182 2.10985352 13.69569489 2.10205078 14.70808411 C2.06945178 18.91391643 2.0139637 23.11936042 1.95898438 27.32495117 C1.81438232 39.41539507 1.88392842 51.06923459 4 63 C4.19686401 64.28777344 4.19686401 64.28777344 4.39770508 65.6015625 C4.78614875 68.01836872 4.78614875 68.01836872 6 71 C9.70509966 73.00665574 12.72648068 73.11098919 16.875 73.0625 C20.61495407 73.29194503 22.37701549 73.42545732 25.16015625 75.9921875 C26.9375 78.4375 26.9375 78.4375 28.40234375 80.87109375 C30.9033971 84.2037932 33.93355866 84.81863183 37.9543457 85.50244141 C39.01741943 85.61765137 40.08049316 85.73286133 41.17578125 85.8515625 C42.91118164 86.04492188 42.91118164 86.04492188 44.68164062 86.2421875 C45.87982422 86.36851562 47.07800781 86.49484375 48.3125 86.625 C49.53001953 86.7590625 50.74753906 86.893125 52.00195312 87.03125 C55.00066941 87.36052081 57.99994466 87.68320228 61 88 C61 88.66 61 89.32 61 90 C48.41866408 90.41476932 36.44968387 89.50744287 25 84 C24.3723877 83.70254883 23.74477539 83.40509766 23.09814453 83.09863281 C20.95496008 82.07825915 18.81985099 81.04281452 16.6875 80 C15.66390381 79.50185791 15.66390381 79.50185791 14.61962891 78.99365234 C8.16416808 75.75876862 4.19620419 73.3091159 1.66523743 66.19625854 C0.64650574 62.83295084 0.16904263 59.45627127 -0.17578125 55.97265625 C-0.29546013 54.82640526 -0.29546013 54.82640526 -0.41755676 53.65699768 C-1.29593882 44.27849469 -1.26478918 34.882252 -1.20581055 25.47094727 C-1.18716646 22.38224303 -1.18530422 19.29383361 -1.18554688 16.20507812 C-1.18064389 14.23958071 -1.17482098 12.27408533 -1.16796875 10.30859375 C-1.16685593 9.38590195 -1.1657431 8.46321014 -1.16459656 7.51255798 C-1.11617472 1.11617472 -1.11617472 1.11617472 0 0 Z " fill="#363B4A" transform="translate(230,225)"/>
<path d="M0 0 C0.80659058 -0.00776459 1.61318115 -0.01552917 2.44421387 -0.02352905 C19.16020785 -0.15050051 19.16020785 -0.15050051 26.625 3.375 C28.92022619 6.81783928 28.89278547 8.16394506 28.94384766 12.22338867 C28.96371735 13.4244072 28.98358704 14.62542572 29.00405884 15.86283875 C29.01561005 17.15978165 29.02716125 18.45672455 29.0390625 19.79296875 C29.05777377 21.13390801 29.07734716 22.4748355 29.0977478 23.81575012 C29.14907965 27.3420009 29.18869948 30.86828987 29.22589111 34.39471436 C29.26592432 37.99435885 29.31701974 41.59384439 29.3671875 45.19335938 C29.46395905 52.25378985 29.54835981 59.31431999 29.625 66.375 C28.965 66.375 28.305 66.375 27.625 66.375 C26.32784361 63.78068722 26.4718665 61.85248552 26.43554688 58.94726562 C26.41882935 57.81268921 26.40211182 56.67811279 26.3848877 55.50915527 C26.37131226 54.27894653 26.35773682 53.04873779 26.34375 51.78125 C26.32534058 50.52364868 26.30693115 49.26604736 26.28796387 47.97033691 C26.21904426 43.25322162 26.15872785 38.53602441 26.09893799 33.81878662 C26.03996198 29.20202342 25.97383089 24.58539693 25.90625 19.96875 C25.89267456 18.73854126 25.87909912 17.50833252 25.8651123 16.24084473 C25.84839478 15.10626831 25.83167725 13.97169189 25.81445312 12.80273438 C25.80192505 11.80060913 25.78939697 10.79848389 25.77648926 9.76599121 C25.78000629 7.36021039 25.78000629 7.36021039 24.625 5.375 C19.12156289 3.66116882 14.08522743 3.05692963 8.34765625 3.0390625 C7.57804062 3.0324057 6.80842499 3.0257489 6.01548767 3.01889038 C4.39275473 3.00882562 2.76998092 3.00407143 1.1472168 3.00439453 C-1.27564226 3.00006585 -3.69660811 2.96380694 -6.11914062 2.92578125 C-15.07912748 2.86436222 -23.21397194 3.60456408 -31.86082458 6.05899048 C-35.79134551 7.15596328 -38.43448989 7.42312538 -42.375 6.375 C-48.13696276 7.84249989 -52.91021585 10.46831387 -57.375 14.375 C-58.035 14.375 -58.695 14.375 -59.375 14.375 C-57.85161994 10.10953584 -55.24137861 8.55423158 -51.375 6.375 C-35.20491771 -0.10510765 -17.15997568 0.07655055 0 0 Z " fill="#313B49" transform="translate(85.375,125.625)"/>
<path d="M0 0 C2.78251058 2.33371855 2.97502272 3.82828118 3.5 7.4375 C2.8699946 11.92628845 1.54128144 13.26355525 -2 16 C-3.84375 16.84765625 -3.84375 16.84765625 -6 17 C-8.578125 15.56640625 -8.578125 15.56640625 -11.25 13.5625 C-12.14203125 12.90378906 -13.0340625 12.24507812 -13.953125 11.56640625 C-14.62859375 11.04949219 -15.3040625 10.53257812 -16 10 C-8.81148611 -2.40313258 -8.81148611 -2.40313258 0 0 Z " fill="#836961" transform="translate(132,189)"/>
<path d="M0 0 C3.96 0 7.92 0 12 0 C12 29.37 12 58.74 12 89 C4.41 89 -3.18 89 -11 89 C-8 87 -8 87 10 87 C10 58.62 10 30.24 10 1 C6.7 1 3.4 1 0 1 C0 0.67 0 0.34 0 0 Z " fill="#37414F" transform="translate(311,127)"/>
<path d="M0 0 C4.46776612 2.03080278 7.21536647 4.13903139 10.5 7.75 C16.00126805 13.46285528 22.98485593 16.54378215 30 20 C31.50982057 20.75901395 33.0189246 21.51945475 34.52734375 22.28125 C38.34338171 24.20429275 42.16892001 26.10711422 46 28 C46 28.66 46 29.32 46 30 C30.32496472 23.82919058 16.02222291 16.65973351 3.53515625 5.2265625 C-0.20923988 2.23485668 -3.22637918 1.5937344 -8 2 C-8.99 2.66 -9.98 3.32 -11 4 C-13.86637878 4.20254517 -13.86637878 4.20254517 -17.39916992 4.13525391 C-18.04334366 4.12579239 -18.6875174 4.11633087 -19.35121155 4.10658264 C-21.47792136 4.07293607 -23.60404432 4.02481369 -25.73046875 3.9765625 C-27.20590181 3.95039208 -28.68135116 3.92512533 -30.15681458 3.90072632 C-34.03844828 3.83410729 -37.91973918 3.7552079 -41.80108643 3.67376709 C-45.76243949 3.59281563 -49.72399352 3.52345509 -53.68554688 3.453125 C-61.45727475 3.31344032 -69.22867698 3.16078435 -77 3 C-77 2.67 -77 2.34 -77 2 C-76.18202942 1.99191315 -75.36405884 1.98382629 -74.52130127 1.97549438 C-66.81114668 1.89754036 -59.10118111 1.81024734 -51.39125443 1.71247292 C-47.42753853 1.66253574 -43.46384895 1.61620556 -39.5 1.578125 C-35.6743701 1.54123948 -31.84896174 1.49487082 -28.02352142 1.44193649 C-26.56433754 1.42340987 -25.1051062 1.40829549 -23.64585114 1.39665604 C-21.60123529 1.37976362 -19.5571249 1.35072247 -17.51269531 1.31884766 C-16.34909485 1.30552399 -15.18549438 1.29220032 -13.9866333 1.2784729 C-0.0775641 -0.01840504 -0.0775641 -0.01840504 0 0 Z " fill="#48454F" transform="translate(216,73)"/>
<path d="M0 0 C2 2 2 2 2.4375 4.875 C2 8 2 8 0.0625 10.375 C-3.94774661 12.50288596 -7.52963724 12.75530687 -12 12 C-14 10 -14 10 -14.25 7.6875 C-13.96519795 4.62587796 -13.57866556 2.65502845 -12 0 C-7.41576056 -2.39630698 -4.64674327 -2.11215603 0 0 Z " fill="#F3F4F5" transform="translate(307,191)"/>
<path d="M0 0 C1.79244141 0.01740234 1.79244141 0.01740234 3.62109375 0.03515625 C5.41740234 0.04869141 5.41740234 0.04869141 7.25 0.0625 C8.17683594 0.07410156 9.10367188 0.08570313 10.05859375 0.09765625 C9.56322641 5.32997382 6.83073988 9.10177915 4.05859375 13.41015625 C3.59453125 14.15072266 3.13046875 14.89128906 2.65234375 15.65429688 C0.13085817 19.63076759 0.13085817 19.63076759 -0.94140625 21.09765625 C-1.27140625 21.09765625 -1.60140625 21.09765625 -1.94140625 21.09765625 C-2.30432771 17.78605342 -2.65527357 14.47329137 -3.00390625 11.16015625 C-3.10767578 10.21462891 -3.21144531 9.26910156 -3.31835938 8.29492188 C-3.41181641 7.39580078 -3.50527344 6.49667969 -3.6015625 5.5703125 C-3.69058838 4.73765869 -3.77961426 3.90500488 -3.87133789 3.04711914 C-3.89446045 2.40379639 -3.91758301 1.76047363 -3.94140625 1.09765625 C-2.94140625 0.09765625 -2.94140625 0.09765625 0 0 Z " fill="#5EC5A6" transform="translate(27.94140625,226.90234375)"/>
<path d="M0 0 C0.99 0.33 1.98 0.66 3 1 C2.5153125 1.59425781 2.030625 2.18851563 1.53125 2.80078125 C-2.14281505 7.343904 -5.61497327 11.8998786 -8.875 16.75 C-12.72794887 22.06571224 -16.79705041 25.68461329 -23 28 C-26.19146292 28.43025648 -28.76451584 28.31311137 -32 28 C-30.68 27.67 -29.36 27.34 -28 27 C-28.04640625 26.42894531 -28.0928125 25.85789063 -28.140625 25.26953125 C-28.48179751 17.60533452 -26.52334994 11.18704134 -24 4 C-23.34 4 -22.68 4 -22 4 C-22.33 5.98 -22.66 7.96 -23 10 C-22.05125 9.360625 -21.1025 8.72125 -20.125 8.0625 C-17 6 -17 6 -15 5 C-16.50195666 8.8231624 -18.76713373 10.5556377 -22 13 C-24.09753847 14.72261613 -24.90512593 15.5806711 -25.51171875 18.26171875 C-25.56972656 19.06222656 -25.62773438 19.86273438 -25.6875 20.6875 C-25.75324219 21.49574219 -25.81898437 22.30398437 -25.88671875 23.13671875 C-25.92410156 23.75160156 -25.96148437 24.36648437 -26 25 C-22.06924356 24.42547254 -22.06924356 24.42547254 -19 22 C-18.67 21.34 -18.34 20.68 -18 20 C-17.360625 19.855625 -16.72125 19.71125 -16.0625 19.5625 C-13.61789145 19.13834965 -13.61789145 19.13834965 -12 16 C-14.64 15.67 -17.28 15.34 -20 15 C-20 14.34 -20 13.68 -20 13 C-19.28714844 13.11601562 -18.57429688 13.23203125 -17.83984375 13.3515625 C-14.64654779 13.65241138 -12.13933708 13.70466303 -9 13 C-5.92509619 10.06043527 -4.01020114 6.72150939 -2 3 C-1.34 2.01 -0.68 1.02 0 0 Z " fill="#4F4B51" transform="translate(114,195)"/>
<path d="M0 0 C2.8595908 1.2057849 3.31850742 2.74930197 4.58203125 5.5390625 C5.01128906 6.4465625 5.44054687 7.3540625 5.8828125 8.2890625 C6.72429836 10.18602031 7.51189349 12.10708621 8.26953125 14.0390625 C10.9656028 18.37203464 14.92833233 20.89242913 19.01953125 23.8515625 C20.68951774 25.18073542 22.35810612 26.51170352 24.01953125 27.8515625 C23.68953125 28.5115625 23.35953125 29.1715625 23.01953125 29.8515625 C19.30878821 30.39726001 18.10202251 29.90880134 14.95703125 27.7265625 C12.06785527 25.11148783 10.06643072 22.16895129 8.01953125 18.8515625 C7.18421875 17.8615625 7.18421875 17.8615625 6.33203125 16.8515625 C4.62839378 14.2555435 4.36649878 11.90487679 4.01953125 8.8515625 C1.04953125 8.5215625 -1.92046875 8.1915625 -4.98046875 7.8515625 C-5.31046875 5.8715625 -5.64046875 3.8915625 -5.98046875 1.8515625 C-3.84937534 0.55768436 -2.52112712 -0.18896022 0 0 Z " fill="#45474F" transform="translate(205.98046875,86.1484375)"/>
<path d="M0 0 C-2.47671433 2.70864745 -5.22811736 4.5873006 -8.3125 6.5625 C-9.23675781 7.16191406 -10.16101563 7.76132813 -11.11328125 8.37890625 C-14.54948372 10.3085734 -17.99715076 12 -22 12 C-22 18.6 -22 25.2 -22 32 C-22.66 32 -23.32 32 -24 32 C-25.19667203 28.40998391 -25.20538881 25.4095161 -25.25 21.625 C-25.27578125 20.31789062 -25.3015625 19.01078125 -25.328125 17.6640625 C-24.88479058 12.71349483 -23.51901506 10.32205573 -19.80078125 7.0859375 C-6.49799023 -2.06103655 -6.49799023 -2.06103655 0 0 Z " fill="#434C59" transform="translate(47,132)"/>
<path d="M0 0 C0.33 0 0.66 0 1 0 C1.56157635 17.87684729 1.56157635 17.87684729 -2 25 C-4.9719385 23.87548273 -7.33440687 22.77706209 -10 21 C-9.42588543 17.0722162 -8.24634312 14.40282386 -6.125 11.0625 C-3.87308803 7.4410358 -1.82457972 3.85189051 0 0 Z " fill="#E26777" transform="translate(112,285)"/>
<path d="M0 0 C0.66 0 1.32 0 2 0 C7.94124948 10.54571783 7.94124948 10.54571783 7 17 C6.34 17.66 5.68 18.32 5 19 C2.30037703 18.82002514 0.98813703 17.99118751 -1.1875 16.375 C-3.6580344 13.13774803 -4 11.06507131 -4 7 C-2.91184674 4.39855453 -1.58907517 2.35953585 0 0 Z " fill="#F3AA85" transform="translate(106,248)"/>
<path d="M0 0 C2.26979665 -0.10794277 4.54105196 -0.18556176 6.8125 -0.25 C8.07707031 -0.29640625 9.34164062 -0.3428125 10.64453125 -0.390625 C14 0 14 0 15.95703125 1.8515625 C17 4 17 4 16.875 6.625 C16 9 16 9 13 11 C10.58203125 11.3984375 10.58203125 11.3984375 8 11 C5.76171875 9.1015625 5.76171875 9.1015625 3.6875 6.625 C2.64142578 5.40683594 2.64142578 5.40683594 1.57421875 4.1640625 C0 2 0 2 0 0 Z " fill="#F1AA81" transform="translate(126,215)"/>
<path d="M0 0 C-1 2 -1 2 -2.66513062 2.59022522 C-12.70701788 4.35259881 -23.11297693 4.14070086 -33.2734375 4.09765625 C-34.56319489 4.0962413 -35.85295227 4.09482635 -37.18179321 4.09336853 C-40.5583705 4.08960795 -43.93490259 4.07983555 -47.3114624 4.06866455 C-50.77794789 4.05830888 -54.2444409 4.05384106 -57.7109375 4.04882812 C-64.47397653 4.03820524 -71.23698608 4.02120987 -78 4 C-78 3.67 -78 3.34 -78 3 C-77.35092682 2.97716446 -76.70185364 2.95432892 -76.03311157 2.93080139 C-69.18540729 2.6895261 -62.33779777 2.4456798 -55.49023438 2.20043945 C-52.94566076 2.10963071 -50.40106482 2.01944501 -47.85644531 1.92993164 C-29.11178588 1.28065895 -29.11178588 1.28065895 -10.38223267 0.30152893 C-6.91507159 0.08932252 -3.47387498 -0.04637962 0 0 Z " fill="#2E3B49" transform="translate(113,112)"/>
<path d="M0 0 C3.67500247 1.22500082 3.68485083 1.9127628 5.375 5.25 C8.19667355 10.14893574 11.56404796 14.0520329 15.5 18.0625 C16.31863525 18.92053223 16.31863525 18.92053223 17.15380859 19.79589844 C19.71062094 22.33199853 21.5938024 23.84965413 25.0078125 25.11328125 C29.07308262 24.95937416 31.06280736 23.44273286 34.375 21.125 C39.30329273 17.81831096 43.00057123 16 49 16 C46.42190825 17.71872783 43.96750747 19.03410546 41.1875 20.375 C38.13524625 21.86142993 35.6637365 23.25391326 32.9375 25.3125 C28.8219368 27.67675971 25.6197056 28.23345373 21 27 C12.17621757 21.49847071 4.19311579 11.41473169 0 2 C0 1.34 0 0.68 0 0 Z " fill="#3D424D" transform="translate(7,278)"/>
<path d="M0 0 C0.66 0 1.32 0 2 0 C1 2 0 4 -1 6 C3.95 5.67 8.9 5.34 14 5 C11 8 11 8 7.890625 8.1171875 C6.08851563 7.99730469 6.08851563 7.99730469 4.25 7.875 C-0.44234111 7.7487051 -3.53433453 7.67086782 -7.375 10.5 C-8.24125 11.325 -9.1075 12.15 -10 13 C-8.06280622 13.05406122 -6.12518079 13.09282025 -4.1875 13.125 C-3.10855469 13.14820312 -2.02960938 13.17140625 -0.91796875 13.1953125 C2.19402868 13.23023717 2.19402868 13.23023717 5 11 C5.99 11.33 6.98 11.66 8 12 C4 14.66666667 0 17.33333333 -4 20 C-3.34 18.35 -2.68 16.7 -2 15 C-9.21512435 14.97691745 -9.21512435 14.97691745 -15.125 18.5625 C-15.74375 19.366875 -16.3625 20.17125 -17 21 C-17.66 20.67 -18.32 20.34 -19 20 C-14.75353393 14.28534088 -10.73637433 9.30234895 -4.76171875 5.3515625 C-2.86418101 4.02385461 -2.86418101 4.02385461 -1.39453125 1.8359375 C-0.93433594 1.23007813 -0.47414062 0.62421875 0 0 Z " fill="#46454E" transform="translate(251,64)"/>
<path d="M0 0 C2 2 2 2 2.3125 4.875 C1.9736202 8.26379801 1.27183419 9.53884629 -1 12 C-5.40114397 11.49701212 -7.71195019 9.91227269 -11 7 C-8.43839186 1.28564337 -6.52749383 -0.69441424 0 0 Z " fill="#F0A884" transform="translate(130,192)"/>
<path d="M0 0 C0.99 1.0209375 0.99 1.0209375 2 2.0625 C2.70189453 2.74699219 2.70189453 2.74699219 3.41796875 3.4453125 C4.48851295 4.49735347 5.53260927 5.57688158 6.55078125 6.6796875 C12.85650506 12.97142967 20.72519989 15.25847035 29 18 C28.34 17.01 27.68 16.02 27 15 C30.51716303 15 31.37121748 15.82445585 34 18 C33.4409112 21.24271506 32.5867822 22.93057424 30 25 C29.34 25 28.68 25 28 25 C28.33 23.68 28.66 22.36 29 21 C27.42412109 20.47212891 27.42412109 20.47212891 25.81640625 19.93359375 C15.2438876 16.26670782 5.54669746 12.36991264 0 2 C0 1.34 0 0.68 0 0 Z " fill="#5A626E" transform="translate(252,178)"/>
<path d="M0 0 C2 2 2 2 2.20254517 3.91091919 C2.18033905 4.68813324 2.15813293 5.46534729 2.13525391 6.26611328 C2.11508209 7.14687531 2.09491028 8.02763733 2.0741272 8.93508911 C2.04193085 9.88721283 2.0097345 10.83933655 1.9765625 11.8203125 C1.95153656 12.79410858 1.92651062 13.76790466 1.90072632 14.77120972 C1.81838269 17.88948644 1.72184869 21.00714329 1.625 24.125 C1.56677513 26.23565155 1.50947155 28.34632872 1.453125 30.45703125 C1.31278279 35.63836592 1.1607799 40.81926146 1 46 C0.34 46 -0.32 46 -1 46 C-1.02527062 39.60962769 -1.04283317 33.21926817 -1.05493164 26.82885742 C-1.05997308 24.65307127 -1.06680607 22.47728853 -1.07543945 20.30151367 C-1.08751338 17.18146933 -1.09323005 14.06146962 -1.09765625 10.94140625 C-1.10281754 9.96224747 -1.10797882 8.98308868 -1.11329651 7.97425842 C-1.11337204 7.07340012 -1.11344757 6.17254181 -1.11352539 5.24438477 C-1.115746 4.44718521 -1.11796661 3.64998566 -1.12025452 2.82862854 C-1 1 -1 1 0 0 Z " fill="#2E3846" transform="translate(230,225)"/>
<path d="M0 0 C0.495 0.99 0.495 0.99 1 2 C-0.89212702 2.53414112 -2.78891636 3.05178329 -4.6875 3.5625 C-5.74324219 3.85253906 -6.79898438 4.14257812 -7.88671875 4.44140625 C-11.06888763 5.01236001 -12.88935353 4.62313435 -16 4 C-21.76196276 5.46749989 -26.53521585 8.09331387 -31 12 C-31.66 12 -32.32 12 -33 12 C-31.47661994 7.73453584 -28.86637861 6.17923158 -25 4 C-18.64116835 1.16659863 -6.38477654 -3.19238827 0 0 Z " fill="#323C4A" transform="translate(59,128)"/>
<path d="M0 0 C3.0625 0.1875 3.0625 0.1875 5.0625 2.1875 C5.3125 5.6875 5.3125 5.6875 5.0625 9.1875 C3.0625 11.1875 3.0625 11.1875 0 11.375 C-2.9375 11.1875 -2.9375 11.1875 -3.9375 10.1875 C-4.0354057 8.69011876 -4.06724864 7.18807108 -4.0625 5.6875 C-4.06507813 4.8728125 -4.06765625 4.058125 -4.0703125 3.21875 C-3.85713865 -0.04155587 -3.32363189 0.21214672 0 0 Z " fill="#F2F2F3" transform="translate(143.9375,163.8125)"/>
<path d="M0 0 C2.05078125 0.03255208 4.1015625 0.06510417 6.15234375 0.09765625 C6.15234375 3.39765625 6.15234375 6.69765625 6.15234375 10.09765625 C0 10.1953125 0 10.1953125 -1.84765625 10.09765625 C-2.84765625 9.09765625 -2.84765625 9.09765625 -2.98046875 7.28515625 C-2.97789062 6.56328125 -2.9753125 5.84140625 -2.97265625 5.09765625 C-2.97523438 4.37578125 -2.9778125 3.65390625 -2.98046875 2.91015625 C-2.79798679 0.41981421 -2.49538581 0.13189143 0 0 Z " fill="#F2F3F4" transform="translate(142.84765625,142.90234375)"/>
<path d="M0 0 C0.53625 0.28875 1.0725 0.5775 1.625 0.875 C4.35280484 2.16711808 7.12612718 3.08558592 10 4 C10 3.34 10 2.68 10 2 C16.17272598 4.11851397 20.94993406 8.38183726 24.1796875 14.08203125 C25 16 25 16 26 19 C25.34 19.33 24.68 19.66 24 20 C24 19.34 24 18.68 24 18 C21.03 18 18.06 18 15 18 C15 17.67 15 17.34 15 17 C16.98 16.67 18.96 16.34 21 16 C18.06478532 10.97258936 18.06478532 10.97258936 14 7 C12.906875 7.020625 11.81375 7.04125 10.6875 7.0625 C6.21114544 6.98662958 4.39866351 5.8322196 1 3 C0.67 2.01 0.34 1.02 0 0 Z " fill="#3A3F4B" transform="translate(219,112)"/>
<path d="M0 0 C3.5 0.125 3.5 0.125 4.5 1.125 C4.6328125 2.9375 4.6328125 2.9375 4.625 5.125 C4.62757813 5.846875 4.63015625 6.56875 4.6328125 7.3125 C4.5 9.125 4.5 9.125 3.5 10.125 C0 10.25 0 10.25 -3.5 10.125 C-4.5 9.125 -4.5 9.125 -4.6328125 7.3125 C-4.63023437 6.590625 -4.62765625 5.86875 -4.625 5.125 C-4.62757813 4.403125 -4.63015625 3.68125 -4.6328125 2.9375 C-4.38695302 -0.41775884 -3.46989412 0.12392479 0 0 Z " fill="#FAFAFA" transform="translate(143.5,185.875)"/>
<path d="M0 0 C2.4375 0.8125 2.4375 0.8125 4.4375 2.8125 C4.80546448 5.68262296 4.81259409 7.22024618 3.25 9.6875 C1.4375 10.8125 1.4375 10.8125 -1.125 10.625 C-3.5625 9.8125 -3.5625 9.8125 -5.5625 7.8125 C-5.93046448 4.94237704 -5.93759409 3.40475382 -4.375 0.9375 C-2.5625 -0.1875 -2.5625 -0.1875 0 0 Z " fill="#E46F7F" transform="translate(41.5625,84.1875)"/>
<path d="M0 0 C0.495 0.99 0.495 0.99 1 2 C-0.093125 2.12375 -1.18625 2.2475 -2.3125 2.375 C-6.07381802 2.75464801 -6.07381802 2.75464801 -9 5 C-11.86637878 5.20254517 -11.86637878 5.20254517 -15.39916992 5.13525391 C-16.04334366 5.12579239 -16.6875174 5.11633087 -17.35121155 5.10658264 C-19.47792136 5.07293607 -21.60404432 5.02481369 -23.73046875 4.9765625 C-25.20590181 4.95039208 -26.68135116 4.92512533 -28.15681458 4.90072632 C-32.03844828 4.83410729 -35.91973918 4.7552079 -39.80108643 4.67376709 C-43.76243949 4.59281563 -47.72399352 4.52345509 -51.68554688 4.453125 C-59.45727475 4.31344032 -67.22867698 4.16078435 -75 4 C-75 3.67 -75 3.34 -75 3 C-74.18202942 2.99191315 -73.36405884 2.98382629 -72.52130127 2.97549438 C-64.81114668 2.89754036 -57.10118111 2.81024734 -49.39125443 2.71247292 C-45.42753853 2.66253574 -41.46384895 2.61620556 -37.5 2.578125 C-33.6743701 2.54123948 -29.84896174 2.49487082 -26.02352142 2.44193649 C-24.56433754 2.42340987 -23.1051062 2.40829549 -21.64585114 2.39665604 C-19.60123529 2.37976362 -17.5571249 2.35072247 -15.51269531 2.31884766 C-14.34909485 2.30552399 -13.18549438 2.29220032 -11.9866333 2.2784729 C-7.50472104 1.86058058 -4.65378154 -0.25854342 0 0 Z " fill="#395B5F" transform="translate(214,72)"/>
<path d="M0 0 C3.625 0.375 3.625 0.375 7 1 C8.32278481 6.41139241 8.32278481 6.41139241 6.9375 8.9375 C5 10 5 10 1.9375 9.875 C-1 9 -1 9 -3 6 C-2.64111965 3.03923709 -2.15341979 2.15341979 0 0 Z " fill="#E47080" transform="translate(38,65)"/>
<path d="M0 0 C0.90105469 0.11085938 1.80210937 0.22171875 2.73046875 0.3359375 C3.41753906 0.43132812 4.10460937 0.52671875 4.8125 0.625 C5.1425 1.615 5.4725 2.605 5.8125 3.625 C-0.08645571 7.6699982 -6.26053328 6.90248976 -13.1875 6.625 C-5.98058252 -0.77669903 -5.98058252 -0.77669903 0 0 Z " fill="#E2A080" transform="translate(253.1875,71.375)"/>
<path d="M0 0 C3 0.25 3 0.25 5 2.25 C5.3633156 5.08386167 5.3568671 6.65522151 3.875 9.125 C1.07848948 10.80290631 -0.93690532 9.99875648 -4 9.25 C-4.625 5.875 -4.625 5.875 -5 2.25 C-3 0.25 -3 0.25 0 0 Z " fill="#E76D7E" transform="translate(40,45.75)"/>
<path d="M0 0 C2 2 2 2 2.4375 4.875 C2 8 2 8 0.0625 10.375 C-3.94774661 12.50288596 -7.52963724 12.75530687 -12 12 C-14 10 -14 10 -14.25 7.6875 C-13.96519795 4.62587796 -13.57866556 2.65502845 -12 0 C-7.41576056 -2.39630698 -4.64674327 -2.11215603 0 0 Z M-9.1875 2.1875 C-12.24677661 4.67729213 -12.24677661 4.67729213 -12.375 7.8125 C-12.25125 8.534375 -12.1275 9.25625 -12 10 C-5.86785227 10.56118018 -5.86785227 10.56118018 -0.375 8.25 C1.19768036 6.13695502 1.19768036 6.13695502 0.9375 3.875 C0.02196448 1.65632042 0.02196448 1.65632042 -3 0 C-6.23206279 -0.28292125 -6.23206279 -0.28292125 -9.1875 2.1875 Z " fill="#49525F" transform="translate(307,191)"/>
<path d="M0 0 C1.97265625 0.36328125 1.97265625 0.36328125 3.73828125 1.5625 C5.4403697 4.04561005 5.15088681 5.5366205 4.78515625 8.48828125 C4.68847656 9.37773437 4.59179688 10.2671875 4.4921875 11.18359375 C4.32074219 11.90289062 4.14929688 12.6221875 3.97265625 13.36328125 C0.8440513 14.92758373 -1.583373 14.71955409 -5.02734375 14.36328125 C-7.52734375 12.30078125 -7.52734375 12.30078125 -9.02734375 9.36328125 C-8.77688014 1.97460475 -7.39665763 0.17973187 0 0 Z M-6.02734375 3.36328125 C-6.1878819 5.23650073 -6.1878819 5.23650073 -6.15234375 7.36328125 C-6.15492188 8.08515625 -6.1575 8.80703125 -6.16015625 9.55078125 C-6.22429651 11.3841754 -6.22429651 11.3841754 -5.02734375 12.36328125 C-1.52734375 12.52994792 -1.52734375 12.52994792 1.97265625 12.36328125 C3.16960901 11.3841754 3.16960901 11.3841754 3.10546875 9.55078125 C3.10289062 8.82890625 3.1003125 8.10703125 3.09765625 7.36328125 C3.10023438 6.64140625 3.1028125 5.91953125 3.10546875 5.17578125 C3.16960901 3.3423871 3.16960901 3.3423871 1.97265625 2.36328125 C-2.34359625 1.82062012 -2.34359625 1.82062012 -6.02734375 3.36328125 Z " fill="#494E52" transform="translate(145.02734375,183.63671875)"/>
<path d="M0 0 C11.5812647 -1.06825721 11.5812647 -1.06825721 14.9765625 1.48828125 C16.67540394 3.88752224 18 5.99634395 18 9 C11.48180123 7.10463724 5.82185199 4.4821006 0 1 C0 0.67 0 0.34 0 0 Z " fill="#57BB9F" transform="translate(239,300)"/>
<path d="M0 0 C0.66 0 1.32 0 2 0 C2.13277344 1.07378906 2.26554687 2.14757812 2.40234375 3.25390625 C2.58069564 4.69010833 2.75908295 6.12630601 2.9375 7.5625 C3.02451172 8.26697266 3.11152344 8.97144531 3.20117188 9.69726562 C3.61656461 13.03579243 4.05508553 16.36111628 4.5625 19.6875 C4.95487547 22.65834282 5.10347523 25.44630791 5.0625 28.4375 C5.05347656 29.30246094 5.04445313 30.16742188 5.03515625 31.05859375 C5.02355469 31.69925781 5.01195312 32.33992188 5 33 C4.34 33 3.68 33 3 33 C2.48716694 29.56429127 1.99219602 26.12622082 1.5 22.6875 C1.35691406 21.73037109 1.21382812 20.77324219 1.06640625 19.78710938 C0.12742359 13.14716053 -0.17714233 6.70270487 0 0 Z " fill="#2F3A49" transform="translate(19,68)"/>
<path d="M0 0 C3.25625931 1.72988776 4.66372338 4.75660732 6 8.0625 C6.25 11 6.25 11 6 13.0625 C5.64808594 12.09570312 5.64808594 12.09570312 5.2890625 11.109375 C4.18838927 8.8547092 4.18838927 8.8547092 1.8359375 8.453125 C0.61777344 8.38351563 0.61777344 8.38351563 -0.625 8.3125 C-1.85089844 8.22742188 -1.85089844 8.22742188 -3.1015625 8.140625 C-3.72804687 8.11484375 -4.35453125 8.0890625 -5 8.0625 C-5.33 6.0825 -5.66 4.1025 -6 2.0625 C-3.92495298 0.80265002 -2.44537763 0.07641805 0 0 Z " fill="#594954" transform="translate(206,85.9375)"/>
<path d="M0 0 C0.99 0 1.98 0 3 0 C3 2.31 3 4.62 3 7 C2.34 6.34 1.68 5.68 1 5 C0.27683594 6.37285156 0.27683594 6.37285156 -0.4609375 7.7734375 C-1.09876794 8.9740595 -1.73679926 10.1745748 -2.375 11.375 C-2.69210938 11.97828125 -3.00921875 12.5815625 -3.3359375 13.203125 C-4.7132062 15.78550382 -5.91830581 17.91830581 -8 20 C-8.6425235 22.06874034 -8.6425235 22.06874034 -9 24 C-8.4225 24.268125 -7.845 24.53625 -7.25 24.8125 C-4.9674132 26.01719859 -3.0262058 27.40798115 -1 29 C-1.66 29.33 -2.32 29.66 -3 30 C-5.64 28.02 -8.28 26.04 -11 24 C-10.42981381 20.12548177 -9.30403711 17.52929293 -7.1875 14.25 C-4.32625734 9.65822262 -2.05286452 4.99932888 0 0 Z " fill="#424853" transform="translate(111,282)"/>
<path d="M0 0 C0.66 0 1.32 0 2 0 C1.67 1.98 1.34 3.96 1 6 C1.94875 5.360625 2.8975 4.72125 3.875 4.0625 C7 2 7 2 9 1 C7.49804334 4.8231624 5.23286627 6.5556377 2 9 C-0.02418206 10.68110035 -0.89300442 11.57813172 -1.546875 14.15625 C-1.61390625 14.9296875 -1.6809375 15.703125 -1.75 16.5 C-1.82734375 17.2734375 -1.9046875 18.046875 -1.984375 18.84375 C-2.11746641 21.18609043 -2.11746641 21.18609043 -1 24 C-3.31 24 -5.62 24 -8 24 C-6.68 23.67 -5.36 23.34 -4 23 C-4.04640625 22.42894531 -4.0928125 21.85789063 -4.140625 21.26953125 C-4.48179751 13.60533452 -2.52334994 7.18704134 0 0 Z " fill="#44444E" transform="translate(90,199)"/>
<path d="M0 0 C0.33 0.66 0.66 1.32 1 2 C0.484375 2.556875 -0.03125 3.11375 -0.5625 3.6875 C-2.24785089 5.90987293 -2.24785089 5.90987293 -1.875 8.5625 C-0.95952916 11.1127402 -0.06699293 12.2924841 2 14 C1.67 14.99 1.34 15.98 1 17 C0.21625 16.01 -0.5675 15.02 -1.375 14 C-2.24125 13.01 -3.1075 12.02 -4 11 C-4.66 11 -5.32 11 -6 11 C-6.495 11.66 -6.99 12.32 -7.5 13 C-7.995 13.66 -8.49 14.32 -9 15 C-9.66 15 -10.32 15 -11 15 C-10.690625 14.443125 -10.38125 13.88625 -10.0625 13.3125 C-8.8959416 10.77351995 -8.20951542 8.79353894 -8 6 C-9.33153266 3.69495956 -9.33153266 3.69495956 -11 2 C-9.0625 2.375 -9.0625 2.375 -7 3 C-6.67 3.66 -6.34 4.32 -6 5 C-5.34 5 -4.68 5 -4 5 C-2.61767557 3.37373596 -1.28062485 1.7074998 0 0 Z " fill="#5A626E" transform="translate(255,157)"/>
<path d="M0 0 C-1 2 -2 4 -3 6 C-6.96 6 -10.92 6 -15 6 C-10.88012059 -0.59180706 -7.51260325 -0.78772927 0 0 Z " fill="#EBA282" transform="translate(249,79)"/>
<path d="M0 0 C1.29640378 0.59393382 2.58698839 1.20057989 3.875 1.8125 C4.59429687 2.14894531 5.31359375 2.48539063 6.0546875 2.83203125 C8 4 8 4 10 7 C13.56769552 7.73606499 13.56769552 7.73606499 17 8 C17 8.66 17 9.32 17 10 C13.37 10 9.74 10 6 10 C6 9.01 6 8.02 6 7 C5.21625 6.7525 4.4325 6.505 3.625 6.25 C0.67682892 4.84610901 0.0975223 3.99324263 -1 1 C-0.67 0.67 -0.34 0.34 0 0 Z " fill="#434B58" transform="translate(29,206)"/>
<path d="M0 0 C-1 3 -1 3 -3.1953125 4.28125 C-11.17743976 7.60181494 -19.35389721 10.19288299 -28 11 C-28.66 10.34 -29.32 9.68 -30 9 C-28.73285156 8.68546875 -27.46570312 8.3709375 -26.16015625 8.046875 C-18.48531197 6.10627605 -7.40068705 0 0 0 Z " fill="#495156" transform="translate(84,284)"/>
<path d="M0 0 C1.03450491 1.30674304 2.02172071 2.65064926 3 4 C3.44472656 4.59425781 3.88945312 5.18851562 4.34765625 5.80078125 C8.45109096 11.68732408 8.45109096 11.68732408 7.8125 16 C7.544375 16.99 7.27625 17.98 7 19 C6.34 19 5.68 19 5 19 C2.12059087 12.5849443 0.4535179 7.02952752 0 0 Z " fill="#65BFD4" transform="translate(23,92)"/>
<path d="M0 0 C0.33 0 0.66 0 1 0 C1.12117188 0.89203125 1.24234375 1.7840625 1.3671875 2.703125 C1.53476562 3.87359375 1.70234375 5.0440625 1.875 6.25 C2.03742187 7.41015625 2.19984375 8.5703125 2.3671875 9.765625 C2.92276194 12.60522771 3.45044705 14.5845204 5 17 C7.0335948 18.26804566 7.0335948 18.26804566 9 19 C8.67 19.99 8.34 20.98 8 22 C2.80715009 19.11508338 0.79895954 16.8965896 -1 11 C-1.2630779 7.11960096 -1.18891745 3.71536702 0 0 Z " fill="#394351" transform="translate(26,194)"/>
<path d="M0 0 C0.99 0.33 1.98 0.66 3 1 C-1 3.66666667 -5 6.33333333 -9 9 C-8.34 7.35 -7.68 5.7 -7 4 C-14.21512435 3.97691745 -14.21512435 3.97691745 -20.125 7.5625 C-20.74375 8.366875 -21.3625 9.17125 -22 10 C-22.66 9.67 -23.32 9.34 -24 9 C-22.4461604 5.96962624 -20.8468024 3.90266086 -18 2 C-13.97672041 1.56306318 -10.40203558 1.68156639 -6.36328125 1.94921875 C-2.86559963 2.32004307 -2.86559963 2.32004307 0 0 Z " fill="#40424C" transform="translate(256,75)"/>
<path d="M0 0 C0.42796875 0.57105469 0.8559375 1.14210938 1.296875 1.73046875 C2.39981695 3.20021479 3.51377168 4.66178685 4.640625 6.11328125 C9 12.07038835 9 12.07038835 9 16.8125 C8.18610869 19.40677855 7.39554302 21.67409497 6 24 C6 23.34 6 22.68 6 22 C5.34 21.67 4.68 21.34 4 21 C4.66 21 5.32 21 6 21 C7.07891774 14.21823137 4.04796079 10.18952194 0.43359375 4.57421875 C-0.27603516 3.29998047 -0.27603516 3.29998047 -1 2 C-0.67 1.34 -0.34 0.68 0 0 Z " fill="#395363" transform="translate(24,90)"/>
<path d="M0 0 C-1.72271227 1.15551453 -3.45346917 2.29904119 -5.1875 3.4375 C-6.15042969 4.07558594 -7.11335938 4.71367187 -8.10546875 5.37109375 C-10.84977757 6.91546187 -12.90418343 7.59816641 -16 8 C-14.54249246 4.17608977 -12.75128879 2.96836289 -9.125 1.1875 C-8.26132812 0.74792969 -7.39765625 0.30835938 -6.5078125 -0.14453125 C-3.79276303 -1.07069298 -2.63940258 -1.00051772 0 0 Z " fill="#E7E8EA" transform="translate(44,133)"/>
<path d="M0 0 C0.99 1.0209375 0.99 1.0209375 2 2.0625 C6.87605461 6.92470218 11.88149182 11.74954253 18 15 C17.01 15.33 16.02 15.66 15 16 C8.52615929 12.66432614 3.67122003 8.24107405 0 2 C0 1.34 0 0.68 0 0 Z " fill="#4E5663" transform="translate(252,178)"/>
<path d="M0 0 C-0.66 0 -1.32 0 -2 0 C-1.67 0.99 -1.34 1.98 -1 3 C1.97 3.33 4.94 3.66 8 4 C8 4.33 8 4.66 8 5 C1.59370576 5.20852314 -3.92972642 5.1583195 -10 3 C-9.67 2.01 -9.34 1.02 -9 0 C-5.62182575 -0.84454356 -3.32534757 -1.10844919 0 0 Z " fill="#36545A" transform="translate(192,90)"/>
<path d="M0 0 C0.33 0.66 0.66 1.32 1 2 C-0.93475671 2.53093324 -2.87293155 3.04942317 -4.8125 3.5625 C-6.43091797 3.99755859 -6.43091797 3.99755859 -8.08203125 4.44140625 C-11 5 -11 5 -14 4 C-13.34 4 -12.68 4 -12 4 C-11.835 3.360625 -11.67 2.72125 -11.5 2.0625 C-10 0 -10 0 -8.15625 -0.5234375 C-2.55 -1.275 -2.55 -1.275 0 0 Z " fill="#3B4552" transform="translate(59,128)"/>
<path d="M0 0 C7.13414634 5.70731707 7.13414634 5.70731707 9 9 C8.67 9.99 8.34 10.98 8 12 C7.27683594 11.13375 7.27683594 11.13375 6.5390625 10.25 C5.90742188 9.5075 5.27578125 8.765 4.625 8 C3.99851563 7.2575 3.37203125 6.515 2.7265625 5.75 C2.15679687 5.1725 1.58703125 4.595 1 4 C0.34 4 -0.32 4 -1 4 C-1.33 4.66 -1.66 5.32 -2 6 C-2.99 5.67 -3.98 5.34 -5 5 C-4.34 4.01 -3.68 3.02 -3 2 C-2.01 2 -1.02 2 0 2 C0 1.34 0 0.68 0 0 Z " fill="#514C52" transform="translate(125,216)"/>
<path d="M0 0 C2.8125 -0.3125 2.8125 -0.3125 6 0 C7.875 2.5 7.875 2.5 9 5 C6.36 5 3.72 5 1 5 C0.67 3.35 0.34 1.7 0 0 Z " fill="#E26777" transform="translate(200,88)"/>
<path d="M0 0 C2.01822917 0.06510417 4.03645833 0.13020833 6.0546875 0.1953125 C6.0546875 0.5253125 6.0546875 0.8553125 6.0546875 1.1953125 C5.0028125 1.4221875 3.9509375 1.6490625 2.8671875 1.8828125 C-1.1051031 2.98891781 -3.24130887 5.08161135 -5.9453125 8.1953125 C-6.9353125 7.8653125 -7.9253125 7.5353125 -8.9453125 7.1953125 C-1.9453125 0.1953125 -1.9453125 0.1953125 0 0 Z " fill="#383E49" transform="translate(123.9453125,186.8046875)"/>
<path d="M0 0 C5.40489519 1.52012677 8.98492628 5.27385218 13 9 C12.34 9.66 11.68 10.32 11 11 C10.46890625 10.52949219 9.9378125 10.05898437 9.390625 9.57421875 C8.68421875 8.95160156 7.9778125 8.32898438 7.25 7.6875 C6.20585937 6.76517578 6.20585937 6.76517578 5.140625 5.82421875 C3.14885494 4.12685266 1.11101085 2.54522191 -1 1 C-0.67 0.67 -0.34 0.34 0 0 Z " fill="#575155" transform="translate(215,73)"/>
<path d="M0 0 C0.33 0.66 0.66 1.32 1 2 C0.21654285 3.17219543 -0.57702836 4.33763668 -1.375 5.5 C-1.81585938 6.1496875 -2.25671875 6.799375 -2.7109375 7.46875 C-3.34902344 8.22671875 -3.34902344 8.22671875 -4 9 C-4.66 9 -5.32 9 -6 9 C-7.2890625 7.46875 -7.2890625 7.46875 -8.625 5.5 C-9.07101563 4.8503125 -9.51703125 4.200625 -9.9765625 3.53125 C-10.31429687 3.0259375 -10.65203125 2.520625 -11 2 C-9.0625 2.375 -9.0625 2.375 -7 3 C-6.67 3.66 -6.34 4.32 -6 5 C-5.34 5 -4.68 5 -4 5 C-2.61767557 3.37373596 -1.28062485 1.7074998 0 0 Z " fill="#464F5C" transform="translate(255,157)"/>
<path d="M0 0 C1.32 0.33 2.64 0.66 4 1 C1.57542028 3.68234235 -1.07510397 5.36856725 -4.1875 7.1875 C-5.08855469 7.71730469 -5.98960938 8.24710938 -6.91796875 8.79296875 C-7.60503906 9.19128906 -8.29210938 9.58960938 -9 10 C-9 9.01 -9 8.02 -9 7 C-7.03125 5.4296875 -7.03125 5.4296875 -4.5 3.875 C-2.98742349 2.93664235 -1.48376208 1.98328677 0 1 C0 0.67 0 0.34 0 0 Z " fill="#5A626E" transform="translate(43,131)"/>
<path d="M0 0 C0 1.32 0 2.64 0 4 C-2.97 4 -5.94 4 -9 4 C-9 3.01 -9 2.02 -9 1 C-2.25 0 -2.25 0 0 0 Z " fill="#EBECED" transform="translate(199,89)"/>
<path d="M0 0 C3.125 0.375 3.125 0.375 6 1 C6 1.33 6 1.66 6 2 C4.35 2.33 2.7 2.66 1 3 C0.67 5.31 0.34 7.62 0 10 C-0.99 10 -1.98 10 -3 10 C-2.25 2.25 -2.25 2.25 0 0 Z " fill="#5C5C55" transform="translate(139,184)"/>
<path d="M0 0 C3.875 1.875 3.875 1.875 5 3 C4.71269945 5.33944736 4.38063221 7.6739143 4 10 C3.01 10.33 2.02 10.66 1 11 C1.20625 9.9275 1.4125 8.855 1.625 7.75 C1.9876191 4.12380904 1.98362069 2.91708924 0 0 Z " fill="#373E48" transform="translate(140,215)"/>
<path d="M0 0 C1.5027237 0.97498145 3.00211963 1.95509389 4.5 2.9375 C5.3353125 3.48277344 6.170625 4.02804688 7.03125 4.58984375 C7.6809375 5.05519531 8.330625 5.52054687 9 6 C9 6.33 9 6.66 9 7 C6.75 7.3125 6.75 7.3125 4 7 C0 2.89189189 0 2.89189189 0 0 Z " fill="#E2A080" transform="translate(220,109)"/>
<path d="M0 0 C0.66 0.99 1.32 1.98 2 3 C2.87072072 4.23220174 3.74584102 5.46130459 4.625 6.6875 C5.07101563 7.31011719 5.51703125 7.93273437 5.9765625 8.57421875 C6.31429687 9.04472656 6.65203125 9.51523438 7 10 C6.34 10.66 5.68 11.32 5 12 C3.96386967 10.76265016 2.94652198 9.50955363 1.9375 8.25 C1.36902344 7.55390625 0.80054688 6.8578125 0.21484375 6.140625 C-1 4 -1 4 -0.68359375 1.734375 C-0.45800781 1.16203125 -0.23242188 0.5896875 0 0 Z " fill="#485659" transform="translate(212,97)"/>
<path d="M0 0 C1.89213369 2.38573379 3.02391783 4.07175348 4 7 C3.01 7.495 3.01 7.495 2 8 C2 7.34 2 6.68 2 6 C-0.97 6 -3.94 6 -7 6 C-7 5.67 -7 5.34 -7 5 C-5.02 4.67 -3.04 4.34 -1 4 C-0.67 2.68 -0.34 1.36 0 0 Z " fill="#444954" transform="translate(241,124)"/>
<path d="M0 0 C2.33659163 2.33659163 3.08324478 3.82661654 4 7 C3.625 10.8125 3.625 10.8125 3 14 C2.67 14 2.34 14 2 14 C-0.29612756 4.58997722 -0.29612756 4.58997722 0 0 Z " fill="#646167" transform="translate(311,132)"/>
<path d="M0 0 C3.33333333 1.66666667 6.66666667 3.33333333 10 5 C10 5.66 10 6.32 10 7 C5.61537866 6.49890042 3.1999003 5.01704885 0 2 C0 1.34 0 0.68 0 0 Z " fill="#303A47" transform="translate(219,112)"/>
<path d="M0 0 C3.3 0.33 6.6 0.66 10 1 C10 1.66 10 2.32 10 3 C7.03 3 4.06 3 1 3 C0.67 2.01 0.34 1.02 0 0 Z " fill="#423D4C" transform="translate(269,311)"/>
<path d="M0 0 C2.66666667 1.33333333 5.33333333 2.66666667 8 4 C7.67 4.99 7.34 5.98 7 7 C1.125 3.375 1.125 3.375 0 0 Z " fill="#2F3C4A" transform="translate(27,209)"/>
<path d="M0 0 C2.7972908 2.06756277 3.02692273 3.14440371 3.6875 6.6875 C3.790625 7.780625 3.89375 8.87375 4 10 C3.34 10 2.68 10 2 10 C0.68373308 6.38026598 0 3.90432869 0 0 Z " fill="#353C48" transform="translate(304,114)"/>
<path d="M0 0 C0.33 0.66 0.66 1.32 1 2 C-0.093125 2.12375 -1.18625 2.2475 -2.3125 2.375 C-6.07381802 2.75464801 -6.07381802 2.75464801 -9 5 C-9 4.01 -9 3.02 -9 2 C-5.86501708 0.14223235 -3.62528568 -0.20140476 0 0 Z " fill="#3C4C54" transform="translate(214,72)"/>
<path d="M0 0 C3.4375 1.3125 3.4375 1.3125 7 3 C7.33 3.99 7.66 4.98 8 6 C2.33846154 4.52307692 2.33846154 4.52307692 0.625 1.875 C0.41875 1.25625 0.2125 0.6375 0 0 Z " fill="#DADCDE" transform="translate(29,208)"/>
<path d="M0 0 C-3.35327639 2.23551759 -3.90743657 2.17283528 -7.6875 1.625 C-8.49574219 1.51414062 -9.30398437 1.40328125 -10.13671875 1.2890625 C-10.75160156 1.19367188 -11.36648437 1.09828125 -12 1 C-12 0.67 -12 0.34 -12 0 C-3.42857143 -1.28571429 -3.42857143 -1.28571429 0 0 Z " fill="#5A5155" transform="translate(265,70)"/>
<path d="M0 0 C5.875 0.875 5.875 0.875 7 2 C7.14115161 4.67058851 7.04247107 7.32432238 7 10 C6.67 10 6.34 10 6 10 C5.62875 8.3603125 5.62875 8.3603125 5.25 6.6875 C3.97997149 2.94091591 3.34243648 1.89404734 0 0 Z " fill="#3D404B" transform="translate(126,190)"/>
<path d="M0 0 C0.66 0 1.32 0 2 0 C2.66 2.31 3.32 4.62 4 7 C3.01 7 2.02 7 1 7 C0.67 4.69 0.34 2.38 0 0 Z " fill="#344857" transform="translate(23,101)"/>
<path d="M0 0 C0.66 0.33 1.32 0.66 2 1 C1.67 2.98 1.34 4.96 1 7 C0.01 7 -0.98 7 -2 7 C-1.34 4.69 -0.68 2.38 0 0 Z " fill="#3C3C4A" transform="translate(111,305)"/>
<path d="M0 0 C-1.25125384 3.75376152 -2.5652404 4.24073289 -6 6 C-6.66 6 -7.32 6 -8 6 C-8 5.34 -8 4.68 -8 4 C-2.58823529 0 -2.58823529 0 0 0 Z " fill="#404E55" transform="translate(43,299)"/>
<path d="M0 0 C2.12038635 2.61514317 4.13091744 5.19637616 6 8 C5.01 8 4.02 8 3 8 C0.19744677 5.0936485 0 4.21174952 0 0 Z " fill="#505055" transform="translate(102,259)"/>
</svg>
